<?xml version="1.0" encoding="UTF-8"?><svg version="1.1" width="195px" height="52px" viewBox="0 0 195.0 52.0" xmlns="http://www.w3.org/2000/svg" xmlns:xlink="http://www.w3.org/1999/xlink"><defs><clipPath id="i0"><path d="M1920,0 L1920,1080 L0,1080 L0,0 L1920,0 Z"></path></clipPath><clipPath id="i1"><path d="M9.66396151,0 C15.0010828,0 19.3277775,4.32669473 19.3277775,9.66394828 C19.3277775,15.0012018 15.0010828,19.3278966 9.66396151,19.3278966 C4.3266815,19.3278966 0,15.0012018 0,9.66394828 C0,4.32669473 4.3266815,0 9.66396151,0 Z"></path></clipPath><clipPath id="i2"><path d="M19.3277775,0 L19.3277775,19.3278966 L0,19.3278966 L0,0 L19.3277775,0 Z"></path></clipPath><linearGradient id="i3" x1="9.66396151px" y1="0px" x2="9.66396151px" y2="19.3278966px" gradientUnits="userSpaceOnUse"><stop stop-color="#61CF90" offset="0%"></stop><stop stop-color="#462646" offset="100%"></stop></linearGradient><clipPath id="i4"><path d="M8.62838349,0 C13.3938073,0 17.2568993,3.86309195 17.2568993,8.62838349 C17.2568993,13.3938073 13.3938073,17.2568993 8.62838349,17.2568993 C3.86309195,17.2568993 0,13.3938073 0,8.62838349 C0,3.86309195 3.86309195,0 8.62838349,0 Z"></path></clipPath><clipPath id="i5"><path d="M17.2568993,0 L17.2568993,17.2568993 L0,17.2568993 L0,0 L17.2568993,0 Z"></path></clipPath><clipPath id="i6"><path d="M4.83184183,0 C7.50046861,0 9.66381597,2.16334737 9.66381597,4.83197414 C9.66381597,7.50060091 7.50046861,9.66394828 4.83184183,9.66394828 C2.16334737,9.66394828 0,7.50060091 0,4.83197414 C0,2.16334737 2.16334737,0 4.83184183,0 Z"></path></clipPath><clipPath id="i7"><path d="M9.66381597,0 L9.66381597,9.66394828 L0,9.66394828 L0,0 L9.66381597,0 Z"></path></clipPath><clipPath id="i8"><path d="M11.1595436,0 C17.322788,0 22.3190871,4.99628719 22.3190871,11.1595052 C22.3190871,17.3226703 17.322788,22.3189694 11.1595436,22.3189694 C4.9962991,22.3189694 0,17.3226703 0,11.1595052 C0,4.99628719 4.9962991,0 11.1595436,0 Z"></path></clipPath><clipPath id="i9"><path d="M22.3190871,0 L22.3190871,22.3189694 L0,22.3189694 L0,0 L22.3190871,0 Z"></path></clipPath><clipPath id="i10"><path d="M8.05325936,0 C12.5009486,0 16.1064923,3.60562305 16.1064923,8.05324613 C16.1064923,12.5010015 12.5009486,16.1064923 8.05325936,16.1064923 C3.60557012,16.1064923 0,12.5010015 0,8.05324613 C0,3.60562305 3.60557012,0 8.05325936,0 Z"></path></clipPath><clipPath id="i11"><path d="M16.1064923,0 L16.1064923,16.1064923 L0,16.1064923 L0,0 L16.1064923,0 Z"></path></clipPath><clipPath id="i12"><path d="M4.02662307,0 C6.25056692,0 8.05324613,1.80281152 8.05324613,4.02662307 C8.05324613,6.25043461 6.25056692,8.05324613 4.02662307,8.05324613 C1.80281152,8.05324613 0,6.25043461 0,4.02662307 C0,1.80281152 1.80281152,0 4.02662307,0 Z"></path></clipPath><clipPath id="i13"><path d="M8.05324613,0 L8.05324613,8.05324613 L0,8.05324613 L0,0 L8.05324613,0 Z"></path></clipPath><clipPath id="i14"><path d="M6.44254398,0 C10.0006689,0 12.885088,2.88441905 12.885088,6.44267629 C12.885088,10.0008012 10.0006689,12.8852203 6.44254398,12.8852203 C2.88441905,12.8852203 0,10.0008012 0,6.44267629 C0,2.88441905 2.88441905,0 6.44254398,0 Z"></path></clipPath><clipPath id="i15"><path d="M12.885088,0 L12.885088,12.8852203 L0,12.8852203 L0,0 L12.885088,0 Z"></path></clipPath><linearGradient id="i16" x1="6.44254398px" y1="0px" x2="6.44254398px" y2="12.8852203px" gradientUnits="userSpaceOnUse"><stop stop-color="#20D99C" offset="0%"></stop><stop stop-color="#1C6963" offset="100%"></stop></linearGradient><clipPath id="i17"><path d="M10.3622632,0 C12.1550194,0 13.6844852,0.237358276 14.9506607,0.711942522 C16.215513,1.16019773 17.178706,1.89846929 17.8375935,2.92675721 C18.5229424,3.95504512 18.8656168,5.35246882 18.8656168,7.1190283 L18.8656168,20.5661553 L12.972675,20.5661553 L12.972675,8.30555507 C12.972675,7.80464178 12.893291,7.3431559 12.735846,6.92136204 C12.6035392,6.49943588 12.3931715,6.14353077 12.1034198,5.85351441 C11.812345,5.53703671 11.4167479,5.29981074 10.9166284,5.14157189 C10.4151859,4.957004 9.80922107,4.8646539 9.09741086,4.8646539 C8.49012296,4.8646539 7.88415813,4.94377333 7.2781933,5.10201218 C6.6709054,5.23378968 6.21047798,5.37893017 5.89294182,5.53703671 L5.89294182,20.5661553 L0,20.5661553 L0,2.2543744 C0.501442512,1.99068708 1.16033004,1.72699977 1.97798564,1.46344476 C2.79564124,1.17329609 3.69135781,0.922839452 4.66778149,0.711942522 C5.6428821,0.501045592 6.61798271,0.329576068 7.59440639,0.197798564 C8.59596834,0.0658887523 9.51946933,0 10.3622632,0 Z"></path></clipPath><clipPath id="i18"><path d="M10.1651262,0 C12.4064022,0 14.2785425,0.382366454 15.7802239,1.14696706 C17.3096897,1.88523862 18.456789,3.03220567 19.2215219,4.58786822 C20.0127162,6.14353077 20.4083133,8.14731622 20.4083133,10.5994892 C20.4083133,14.1062791 19.5245044,16.769349 17.7582095,18.5886989 C15.9919146,20.3815874 13.4608869,21.2780978 10.1651262,21.2780978 C6.78998146,21.2780978 4.24572301,20.3815874 2.53102777,18.5886989 C0.844116947,16.769349 0,14.1062791 0,10.5994892 C0,6.82901195 0.85734762,4.12638234 2.57071979,2.49160037 C4.31187638,0.830489353 6.84290415,0 10.1651262,0 Z M10.1651262,4.66698765 C9.16224115,4.66698765 8.34590862,4.8646539 7.71215938,5.26025103 C7.0797332,5.65571585 6.60475204,6.28853895 6.28853895,7.15858801 C5.99878721,8.00230804 5.8532498,9.1492751 5.8532498,10.5994892 C5.8532498,12.6034069 6.19592424,14.1062791 6.88259617,15.108238 C7.59440639,16.0838678 8.68858306,16.5715504 10.1651262,16.5715504 C11.1402268,16.5715504 11.9446517,16.3474228 12.5770779,15.8992999 C13.2359654,15.4245834 13.7241773,14.7523329 14.0403903,13.8821515 C14.3830648,12.9856411 14.5550635,11.8914644 14.5550635,10.5994892 C14.5550635,9.12294606 14.3830648,7.96274833 14.0403903,7.1190283 C13.7241773,6.24897923 13.2359654,5.62938681 12.5770779,5.26025103 C11.9181904,4.8646539 11.1137654,4.66698765 10.1651262,4.66698765 Z"></path></clipPath><clipPath id="i19"><path d="M6.01201788,7.55418514 L6.05038683,27.2897187 L0.119076058,27.2897187 L0.119076058,7.55418514 L6.01201788,7.55418514 Z M6.09007885,0 L6.09007885,4.54830851 L0,4.54830851 L0,0 L6.09007885,0 Z"></path></clipPath><clipPath id="i20"><path d="M8.14758083,0.00394525882 C9.78156896,0.0567356447 11.0742057,0.241303535 12.022845,0.55764893 C12.9992687,0.847797592 13.8817546,1.23003174 14.6729488,1.70461599 L14.6729488,6.33204392 C13.7772323,5.83113063 12.8801926,5.36964475 11.983153,4.94785089 C11.1138978,4.49959569 10.1123358,4.27546808 8.9784671,4.27546808 C7.94912073,4.27546808 7.21084917,4.43357463 6.76365242,4.75005233 C6.3151326,5.06639773 6.09021116,5.48832389 6.09021116,6.01569852 C6.09021116,6.51661181 6.23574856,6.91207663 6.5255003,7.20209298 C6.84171339,7.49224165 7.25054119,7.72946762 7.7519837,7.91403551 C8.25342622,8.07227436 8.80646835,8.23051321 9.41243318,8.38861975 C10.0726438,8.5468586 10.744762,8.74465717 11.4301108,8.98188314 C12.1419211,9.19291237 12.8008086,9.50925777 13.4080965,9.93118394 C14.0405227,10.3266488 14.5419652,10.8935831 14.9111009,11.6318547 C15.305375,12.3436649 15.5038351,13.2929657 15.5038351,14.4794924 C15.4773738,16.0878131 15.0420846,17.3797883 14.1979677,18.3554181 C13.3551738,19.3045866 12.2609971,19.9900678 10.9154377,20.411994 C9.59766261,20.8074588 8.1608115,21.0052574 6.60488434,21.0052574 C5.18126391,21.0052574 3.95478051,20.8470185 2.92675721,20.5306731 C1.92519525,20.2406568 0.975497531,19.9109484 0.0791194254,19.5418126 L0.0791194254,14.3608133 C0.632823097,14.7299491 1.25175399,15.1121832 1.93842592,15.5077804 C2.62377479,15.8769161 3.37527703,16.1800309 4.19293263,16.4173891 C5.03572651,16.6547474 5.91953547,16.7732942 6.84171339,16.7732942 C7.79167572,16.7732942 8.45056325,16.6151877 8.81969903,16.29871 C9.21529615,15.9560356 9.41243318,15.5473401 9.41243318,15.0726235 C9.41243318,14.6245006 9.21529615,14.2684632 8.81969903,14.0047759 C8.4241019,13.7147595 7.90942871,13.4775336 7.27700254,13.2929657 C6.64457636,13.1083978 5.97245817,12.9369283 5.26064795,12.7788217 C4.62689871,12.6469119 3.99447253,12.4491133 3.36204635,12.1855583 C2.72829711,11.8954097 2.1620243,11.5131755 1.66058179,11.0385913 C1.16006542,10.564007 0.751369928,9.98384201 0.435024533,9.29836084 C0.145008178,8.58641832 0,7.72946762 0,6.72750874 C0,5.43553351 0.250456643,4.36768588 0.751502235,3.52396585 C1.25175399,2.65391678 1.91196458,1.95520493 2.72829711,1.4278303 C3.54595271,0.900455671 4.42976168,0.53131989 5.37840094,0.320422961 C6.32836327,0.0830646842 7.25054119,-0.0223837807 8.14758083,0.00394525882 Z"></path></clipPath><clipPath id="i21"><path d="M5.89307413,0 L5.89307413,11.9046951 C5.89307413,13.170209 6.16985981,14.1195098 6.72356348,14.7522006 C7.3037285,15.3586946 8.21333728,15.6619416 9.45252212,15.6619416 C10.7181683,15.6619416 11.6279094,15.3586946 12.1816131,14.7522006 C12.7353167,14.1195098 13.0121024,13.170209 13.0121024,11.9046951 L13.0121024,0 L18.5491391,0 L18.5491391,12.3792793 C18.5491391,15.2269171 17.7317482,17.309822 16.0970985,18.6282586 C14.4623165,19.9465628 12.2342712,20.605715 9.41309472,20.605715 C7.56728351,20.605715 5.93263384,20.3156986 4.5087488,19.7356659 C3.08499606,19.1555009 1.97758872,18.2722212 1.18652677,17.0856944 C0.395597127,15.8728386 0,14.3040777 0,12.3792793 L0,0 L5.89307413,0 Z"></path></clipPath><clipPath id="i22"><path d="M10.6390489,0 C11.0608428,0 11.5223286,0.0395597127 12.0232419,0.118679138 C12.5242875,0.171337217 12.932983,0.263687316 13.2493284,0.39546482 L13.2493284,5.61615614 C13.0121024,5.32613978 12.7484151,5.10201218 12.4582664,4.94377333 C12.1682501,4.78553448 11.7727853,4.70654736 11.271872,4.70654736 C10.9290652,4.70654736 10.6125875,4.74610707 10.3225712,4.82509419 C10.0325548,4.90421362 9.78209819,5.03612343 9.57120126,5.22069132 C9.36017203,5.40525921 9.18883481,5.66894652 9.0570573,6.01162096 C8.95147653,6.3544277 8.89881845,6.78945223 8.89881845,7.31682686 L8.89881845,8.50335363 L13.2493284,8.50335363 L13.2493284,13.0121024 L8.85925874,13.0121024 L8.85925874,28.5158052 L2.96618461,28.5158052 L2.96618461,13.0121024 L0,13.0121024 L0,8.50335363 L3.00574433,8.50335363 L3.00574433,8.02876939 C3.00574433,6.73679415 3.13765414,5.62938681 3.40134145,4.70654736 C3.66489646,3.78370791 4.03416455,3.018975 4.5087488,2.41261325 C4.98333304,1.77979015 5.53703671,1.29197523 6.16985981,0.949168492 C6.80268291,0.606494057 7.50139475,0.369135781 8.26599536,0.237358276 C9.03059596,0.0791194254 9.8216579,0 10.6390489,0 Z"></path></clipPath><clipPath id="i23"><path d="M10.0062258,0 C12.2210405,0 14.0008306,0.474584246 15.3455963,1.42375274 C16.7165586,2.37305354 17.7185175,3.75724656 18.3513406,5.57659643 C18.9841637,7.39594629 19.2874107,9.61076097 19.2610817,12.2210405 L6.049,12.221 L6.08204949,12.3934535 C6.29216911,13.3760286 6.67738843,14.18864 7.23770744,14.83132 C8.16054689,15.8597402 9.62385934,16.3738842 11.6277771,16.3738842 C12.3660487,16.3738842 13.0912219,16.2947647 13.8030321,16.1365259 C14.5413036,15.951958 15.2269171,15.7410611 15.8597402,15.5037028 C16.4925633,15.2664768 17.0330363,15.0554476 17.4812915,14.8708797 L17.4812915,19.9333322 C16.5319907,20.3289293 15.4641431,20.6452747 14.2777486,20.882633 C13.1175509,21.146188 11.7596869,21.2780978 10.2040244,21.2780978 C8.2001066,21.2780978 6.42031645,20.8694023 4.8646539,20.0520113 C3.3354527,19.2082913 2.13569526,18.0217645 1.26564619,16.492431 C0.421926167,14.9369008 0,13.0912219 0,10.9553943 C0,7.47506572 0.8569507,4.78553448 2.57071979,2.88719749 C4.31095023,0.962399165 6.78945223,0 10.0062258,0 Z M9.76899983,4.5087488 C9.03072826,4.5087488 8.35834545,4.69331669 7.7518514,5.06245247 C7.17181869,5.43158825 6.71033281,6.05118067 6.36765837,6.92136204 C6.20941952,7.34322206 6.09074038,7.84747609 6.01162096,8.43412413 L6.008,8.463 L13.414,8.463 L13.3948837,8.29773432 C13.2513656,7.20485417 12.9919062,6.37692763 12.6165053,5.8139547 C12.0364726,4.94377333 11.0873041,4.5087488 9.76899983,4.5087488 Z"></path></clipPath><clipPath id="i24"><path d="M10.5994892,0 C15.0819089,0 18.3778019,1.12063802 20.4870358,3.36178174 C22.5964021,5.57659643 23.6511513,8.85925874 23.6511513,13.2097687 C23.6511513,17.5339496 22.5964021,20.8167442 20.4870358,23.0578879 C18.3778019,25.2727026 15.0819089,26.38011 10.5994892,26.38011 L0,26.38011 L0,0 L10.5994892,0 Z M9.84798694,4.94377333 L6.40721809,4.94377333 L6.40721809,21.4363366 L9.84798694,21.4363366 C12.2210405,21.4363366 14.0140613,20.7771845 15.2269171,19.4587479 C16.466102,18.1404436 17.0856944,16.0574065 17.0856944,13.2097687 C17.0856944,10.3094728 16.466102,8.21333728 15.2269171,6.92136204 C14.0140613,5.60292546 12.2210405,4.94377333 9.84798694,4.94377333 Z"></path></clipPath></defs><g transform="translate(-1322.0 -524.0)"><g clip-path="url(#i0)"><g transform="translate(1322.0000000000014 524.0)"><g transform="translate(5.2914621880954655 32.67091267804062)"><g transform=""><g clip-path="url(#i1)"><g transform=""><g transform=""><g clip-path="url(#i2)"><polygon points="0,0 19.3277775,0 19.3277775,19.3278966 0,19.3278966 0,0" stroke="none" fill="url(#i3)"></polygon></g></g></g></g></g></g><g transform="translate(28.072445365018215 27.61004789223796)"><g transform=""><g clip-path="url(#i4)"><g transform=""><g transform=""><g clip-path="url(#i5)"><polygon points="0,0 17.2568993,0 17.2568993,17.2568993 0,17.2568993 0,0" stroke="none" fill="#5CAD81"></polygon></g></g></g></g></g></g><g transform="translate(16.45247436614227 23.00894899832474)"><g clip-path="url(#i6)"><g clip-path="url(#i7)"><polygon points="0,0 9.66381597,0 9.66381597,9.66394828 0,9.66394828 0,0" stroke="none" fill="#7B7B7B"></polygon></g></g></g><g transform="translate(14.380550951183979 0.0)"><g clip-path="url(#i8)"><g clip-path="url(#i9)"><polygon points="0,0 22.3190871,0 22.3190871,22.3189694 0,22.3189694 0,0" stroke="none" fill="#63D993"></polygon></g></g></g><g transform="translate(0.0 15.18551965924098)"><g clip-path="url(#i10)"><g clip-path="url(#i11)"><polygon points="0,0 16.1064923,0 16.1064923,16.1064923 0,16.1064923 0,0" stroke="none" fill="#FF5174"></polygon></g></g></g><g transform="translate(24.61963659360845 43.94675386833704)"><g transform=""><g clip-path="url(#i12)"><g transform=""><g transform=""><g clip-path="url(#i13)"><polygon points="0,0 8.05324613,0 8.05324613,8.05324613 0,8.05324613 0,0" stroke="none" fill="#FFD766"></polygon></g></g></g></g></g></g><g transform="translate(34.74414460657499 14.034318788642391)"><g clip-path="url(#i14)"><g clip-path="url(#i15)"><polygon points="0,0 12.885088,0 12.885088,12.8852203 0,12.8852203 0,0" stroke="none" fill="url(#i16)"></polygon></g></g></g><g transform="translate(175.5683865379833 21.58122705893504)"><g clip-path="url(#i17)"><polygon points="0,0 18.8656168,0 18.8656168,20.5661553 0,20.5661553 0,0" stroke="none" fill="#FFFFFF"></polygon></g></g><g transform="translate(154.4085709725477 21.461092546752184)"><g clip-path="url(#i18)"><polygon points="0,0 20.4083133,0 20.4083133,21.2780978 0,21.2780978 0,0" stroke="none" fill="#FFFFFF"></polygon></g></g><g transform="translate(147.85938776433983 14.85607589785832)"><g clip-path="url(#i19)"><polygon points="0,0 6.09007885,0 6.09007885,27.2897187 0,27.2897187 0,0" stroke="none" fill="#FFFFFF"></polygon></g></g><g transform="translate(131.1211308582024 21.73366835672414)"><g clip-path="url(#i20)"><polygon points="0,-2.22044605e-16 15.5038351,-2.22044605e-16 15.5038351,21.0052574 0,21.0052574 0,-2.22044605e-16" stroke="none" fill="#FFFFFF"></polygon></g></g><g transform="translate(111.4722581662572 22.134269196517273)"><g clip-path="url(#i21)"><polygon points="0,0 18.5491391,0 18.5491391,20.605715 0,20.605715 0,0" stroke="none" fill="#FFFFFF"></polygon></g></g><g transform="translate(98.37296560271716 13.632503245140578)"><g clip-path="url(#i22)"><polygon points="0,0 13.2493284,0 13.2493284,28.5158052 0,28.5158052 0,0" stroke="none" fill="#FFFFFF"></polygon></g></g><g transform="translate(78.72396060404208 21.461092546752184)"><g clip-path="url(#i23)"><polygon points="0,0 19.2626592,0 19.2626592,21.2780978 0,21.2780978 0,0" stroke="none" fill="#FFFFFF"></polygon></g></g><g transform="translate(56.89189453596191 15.76568467677635)"><g clip-path="url(#i24)"><polygon points="0,0 23.6511513,0 23.6511513,26.38011 0,26.38011 0,0" stroke="none" fill="#FFFFFF"></polygon></g></g></g></g></g></svg>