<?xml version="1.0" encoding="UTF-8"?>
<svg width="310px" height="290px" viewBox="0 0 310 290" version="1.1" xmlns="http://www.w3.org/2000/svg" xmlns:xlink="http://www.w3.org/1999/xlink">
    <title>Logo Mark_white</title>
    <g id="Defusion_Logo" stroke="none" stroke-width="1" fill="none" fill-rule="evenodd">
        <g id="style3_white" transform="translate(-314.000000, -395.000000)">
            <g id="Logo-Mark_white" transform="translate(314.000000, 395.000000)">
                <g id="pixel" transform="translate(10.000000, 10.000000)">
                    <g id="1" transform="translate(50.000000, 0.000000)">
                        <rect id="矩形" fill="#F1A42B" x="0" y="0" width="10" height="10"></rect>
                        <rect id="矩形" fill="#B87F1D" x="10" y="0" width="10" height="10"></rect>
                        <rect id="矩形" fill="#FDFF2F" x="20" y="0" width="10" height="10"></rect>
                        <rect id="矩形" fill="#F1A42B" x="30" y="0" width="10" height="10"></rect>
                        <rect id="矩形" fill="#FEFDDF" x="40" y="0" width="10" height="10"></rect>
                        <rect id="矩形" fill="#B87F1D" x="50" y="0" width="10" height="10"></rect>
                        <rect id="矩形" fill="#FDFF2F" x="60" y="0" width="20" height="10"></rect>
                        <rect id="矩形" fill="#F1A42B" x="80" y="0" width="10" height="10"></rect>
                        <rect id="矩形" fill="#FEFDDF" x="90" y="0" width="10" height="10"></rect>
                        <rect id="矩形" fill="#B87F1D" x="100" y="0" width="10" height="10"></rect>
                        <rect id="矩形" fill="#F1A42B" x="110" y="0" width="10" height="10"></rect>
                        <rect id="矩形" fill="#FDFF2F" x="120" y="0" width="10" height="10"></rect>
                        <rect id="矩形" fill="#F1A42B" x="130" y="0" width="10" height="10"></rect>
                        <rect id="矩形" fill="#FEFDDF" x="140" y="0" width="10" height="10"></rect>
                        <rect id="矩形" fill="#B87F1D" x="150" y="0" width="10" height="10"></rect>
                        <rect id="矩形" fill="#F1A42B" x="160" y="0" width="10" height="10"></rect>
                        <rect id="矩形" fill="#895634" x="170" y="0" width="10" height="10"></rect>
                        <rect id="矩形" fill="#FFE294" x="180" y="0" width="20" height="10"></rect>
                        <rect id="矩形" fill="#C76A2A" x="200" y="0" width="10" height="10"></rect>
                    </g>
                    <g id="2" transform="translate(50.000000, 10.000000)">
                        <rect id="矩形" fill="#FDFF2F" x="0" y="0" width="10" height="10"></rect>
                        <rect id="矩形" fill="#F1A42B" x="10" y="0" width="10" height="10"></rect>
                        <rect id="矩形" fill="#B87F1D" x="20" y="0" width="10" height="10"></rect>
                        <rect id="矩形" fill="#FEFDDF" x="30" y="0" width="20" height="10"></rect>
                        <rect id="矩形" fill="#FDFF2F" x="50" y="0" width="10" height="10"></rect>
                        <rect id="矩形" fill="#B87F1D" x="60" y="0" width="10" height="10"></rect>
                        <rect id="矩形" fill="#F1A42B" x="70" y="0" width="10" height="10"></rect>
                        <rect id="矩形" fill="#FEFDDF" x="80" y="0" width="20" height="10"></rect>
                        <rect id="矩形" fill="#FDFF2F" x="100" y="0" width="10" height="10"></rect>
                        <rect id="矩形" fill="#B87F1D" x="110" y="0" width="10" height="10"></rect>
                        <rect id="矩形" fill="#F1A42B" x="120" y="0" width="10" height="10"></rect>
                        <rect id="矩形" fill="#FEFDDF" x="130" y="0" width="20" height="10"></rect>
                        <rect id="矩形" fill="#FDFF2F" x="150" y="0" width="10" height="10"></rect>
                        <rect id="矩形" fill="#B87F1D" x="160" y="0" width="10" height="10"></rect>
                        <rect id="矩形" fill="#895634" x="170" y="0" width="10" height="10"></rect>
                        <rect id="矩形" fill="#FFE294" x="180" y="0" width="30" height="10"></rect>
                    </g>
                    <g id="3" transform="translate(50.000000, 20.000000)">
                        <rect id="矩形" fill="#F1A42B" x="0" y="0" width="10" height="10"></rect>
                        <rect id="矩形" fill="#FDFF2F" x="10" y="0" width="10" height="10"></rect>
                        <rect id="矩形" fill="#F1A42B" x="20" y="0" width="10" height="10"></rect>
                        <rect id="矩形" fill="#B87F1D" x="30" y="0" width="10" height="10"></rect>
                        <rect id="矩形" fill="#FDFF2F" x="40" y="0" width="10" height="10"></rect>
                        <rect id="矩形" fill="#F1A42B" x="50" y="0" width="10" height="10"></rect>
                        <rect id="矩形" fill="#FDFF2F" x="60" y="0" width="10" height="10"></rect>
                        <rect id="矩形" fill="#F1A42B" x="70" y="0" width="10" height="10"></rect>
                        <rect id="矩形" fill="#B87F1D" x="80" y="0" width="10" height="10"></rect>
                        <rect id="矩形" fill="#FDFF2F" x="90" y="0" width="10" height="10"></rect>
                        <rect id="矩形" fill="#F1A42B" x="100" y="0" width="10" height="10"></rect>
                        <rect id="矩形" fill="#FDFF2F" x="110" y="0" width="10" height="10"></rect>
                        <rect id="矩形" fill="#F1A42B" x="120" y="0" width="10" height="10"></rect>
                        <rect id="矩形" fill="#B87F1D" x="130" y="0" width="10" height="10"></rect>
                        <rect id="矩形" fill="#FDFF2F" x="140" y="0" width="10" height="10"></rect>
                        <rect id="矩形" fill="#B87F1D" x="150" y="0" width="10" height="10"></rect>
                        <rect id="矩形" fill="#FDFF2F" x="160" y="0" width="10" height="10"></rect>
                        <rect id="矩形" fill="#895634" x="170" y="0" width="20" height="10"></rect>
                        <rect id="矩形" fill="#C76A2A" x="190" y="0" width="10" height="10"></rect>
                        <rect id="矩形" fill="#FFE294" x="200" y="0" width="10" height="10"></rect>
                    </g>
                    <g id="4" transform="translate(50.000000, 30.000000)">
                        <rect id="矩形" fill="#FDFF2F" x="0" y="0" width="10" height="10"></rect>
                        <rect id="矩形" fill="#FEFDDF" x="10" y="0" width="10" height="10"></rect>
                        <rect id="矩形" fill="#FDFF2F" x="20" y="0" width="10" height="10"></rect>
                        <rect id="矩形" fill="#B87F1D" x="30" y="0" width="10" height="10"></rect>
                        <rect id="矩形" fill="#F1A42B" x="40" y="0" width="10" height="10"></rect>
                        <rect id="矩形" fill="#FDFF2F" x="50" y="0" width="10" height="10"></rect>
                        <rect id="矩形" fill="#FEFDDF" x="60" y="0" width="10" height="10"></rect>
                        <rect id="矩形" fill="#FDFF2F" x="70" y="0" width="10" height="10"></rect>
                        <rect id="矩形" fill="#B87F1D" x="80" y="0" width="10" height="10"></rect>
                        <rect id="矩形" fill="#F1A42B" x="90" y="0" width="10" height="10"></rect>
                        <rect id="矩形" fill="#FDFF2F" x="100" y="0" width="10" height="10"></rect>
                        <rect id="矩形" fill="#FEFDDF" x="110" y="0" width="10" height="10"></rect>
                        <rect id="矩形" fill="#FDFF2F" x="120" y="0" width="10" height="10"></rect>
                        <rect id="矩形" fill="#B87F1D" x="130" y="0" width="10" height="10"></rect>
                        <rect id="矩形" fill="#F1A42B" x="140" y="0" width="10" height="10"></rect>
                        <rect id="矩形" fill="#FDFF2F" x="150" y="0" width="10" height="10"></rect>
                        <rect id="矩形" fill="#FEFDDF" x="160" y="0" width="10" height="10"></rect>
                        <rect id="矩形" fill="#FDBF35" x="170" y="0" width="10" height="10"></rect>
                        <rect id="矩形" fill="#895634" x="180" y="0" width="20" height="10"></rect>
                        <rect id="矩形" fill="#FDBF35" x="200" y="0" width="10" height="10"></rect>
                    </g>
                    <g id="5" transform="translate(50.000000, 40.000000)">
                        <rect id="矩形" fill="#FDFFE7" x="0" y="0" width="10" height="10"></rect>
                        <rect id="矩形" fill="#FDFFE7" x="10" y="0" width="10" height="10"></rect>
                        <rect id="矩形" fill="#B87F1D" x="20" y="0" width="10" height="10"></rect>
                        <rect id="矩形" fill="#FDFF2F" x="30" y="0" width="10" height="10"></rect>
                        <rect id="矩形" fill="#B87F1D" x="40" y="0" width="10" height="10"></rect>
                        <rect id="矩形" fill="#FEFDDF" x="50" y="0" width="20" height="10"></rect>
                        <rect id="矩形" fill="#B87F1D" x="70" y="0" width="10" height="10"></rect>
                        <rect id="矩形" fill="#FDFF2F" x="80" y="0" width="10" height="10"></rect>
                        <rect id="矩形" fill="#B87F1D" x="90" y="0" width="10" height="10"></rect>
                        <rect id="矩形" fill="#FEFDDF" x="100" y="0" width="20" height="10"></rect>
                        <rect id="矩形" fill="#B87F1D" x="120" y="0" width="10" height="10"></rect>
                        <rect id="矩形" fill="#FDFF2F" x="130" y="0" width="10" height="10"></rect>
                        <rect id="矩形" fill="#B87F1D" x="140" y="0" width="10" height="10"></rect>
                        <rect id="矩形" fill="#FEFDDF" x="150" y="0" width="20" height="10"></rect>
                        <rect id="矩形" fill="#C76A2A" x="180" y="0" width="30" height="10"></rect>
                        <rect id="矩形" fill="#FDBF35" x="170" y="0" width="10" height="10"></rect>
                    </g>
                    <g id="6" transform="translate(50.000000, 50.000000)">
                        <rect id="矩形" fill="#F1A42B" x="0" y="0" width="10" height="10"></rect>
                        <rect id="矩形" fill="#B87F1D" x="10" y="0" width="10" height="10"></rect>
                        <rect id="矩形" fill="#FDFF2F" x="20" y="0" width="10" height="10"></rect>
                        <rect id="矩形" fill="#F1A42B" x="30" y="0" width="10" height="10"></rect>
                        <rect id="矩形" fill="#6E3A12" x="40" y="0" width="40" height="10"></rect>
                        <rect id="矩形" fill="#F1A42B" x="130" y="0" width="10" height="10"></rect>
                        <rect id="矩形" fill="#FEFDDF" x="140" y="0" width="10" height="10"></rect>
                        <rect id="矩形" fill="#B87F1D" x="150" y="0" width="10" height="10"></rect>
                        <rect id="矩形" fill="#F1A42B" x="160" y="0" width="10" height="10"></rect>
                        <rect id="矩形" fill="#895634" x="170" y="0" width="10" height="10"></rect>
                        <rect id="矩形" fill="#FFE294" x="180" y="0" width="20" height="10"></rect>
                        <rect id="矩形" fill="#895634" x="200" y="0" width="10" height="10"></rect>
                    </g>
                    <g id="7" transform="translate(50.000000, 60.000000)">
                        <rect id="矩形" fill="#FDFF2F" x="0" y="0" width="10" height="10"></rect>
                        <rect id="矩形" fill="#F1A42B" x="10" y="0" width="10" height="10"></rect>
                        <rect id="矩形" fill="#B87F1D" x="20" y="0" width="10" height="10"></rect>
                        <rect id="矩形" fill="#FEFDDF" x="30" y="0" width="10" height="10"></rect>
                        <rect id="矩形" fill="#895634" x="40" y="0" width="10" height="10"></rect>
                        <rect id="矩形" fill="#C76A2A" x="50" y="0" width="10" height="10"></rect>
                        <rect id="矩形" fill="#FFE294" x="60" y="0" width="10" height="10"></rect>
                        <rect id="矩形" fill="#895634" x="70" y="0" width="10" height="10"></rect>
                        <rect id="矩形" fill="#FEFDDF" x="130" y="0" width="20" height="10"></rect>
                        <rect id="矩形" fill="#FDFF2F" x="150" y="0" width="10" height="10"></rect>
                        <rect id="矩形" fill="#B87F1D" x="160" y="0" width="10" height="10"></rect>
                        <rect id="矩形" fill="#F1A42B" x="170" y="0" width="10" height="10"></rect>
                        <rect id="矩形" fill="#FFE294" x="180" y="0" width="20" height="10"></rect>
                        <rect id="矩形" fill="#895634" x="200" y="0" width="10" height="10"></rect>
                    </g>
                    <g id="8" transform="translate(50.000000, 70.000000)">
                        <rect id="矩形" fill="#F1A42B" x="0" y="0" width="10" height="10"></rect>
                        <rect id="矩形" fill="#FDFF2F" x="10" y="0" width="10" height="10"></rect>
                        <rect id="矩形" fill="#F1A42B" x="20" y="0" width="10" height="10"></rect>
                        <rect id="矩形" fill="#B87F1D" x="30" y="0" width="10" height="10"></rect>
                        <rect id="矩形" fill="#895634" x="40" y="0" width="20" height="10"></rect>
                        <rect id="矩形" fill="#C76A2A" x="60" y="0" width="20" height="10"></rect>
                        <rect id="矩形" fill="#B87F1D" x="130" y="0" width="10" height="10"></rect>
                        <rect id="矩形" fill="#FDFF2F" x="140" y="0" width="10" height="10"></rect>
                        <rect id="矩形" fill="#B87F1D" x="150" y="0" width="10" height="10"></rect>
                        <rect id="矩形" fill="#FDFF2F" x="160" y="0" width="10" height="10"></rect>
                        <rect id="矩形" fill="#C76A2A" x="170" y="0" width="10" height="10"></rect>
                        <rect id="矩形" fill="#F1A42B" x="180" y="0" width="10" height="10"></rect>
                        <rect id="矩形" fill="#895634" x="190" y="0" width="20" height="10"></rect>
                    </g>
                    <g id="9" transform="translate(50.000000, 80.000000)">
                        <rect id="矩形" fill="#FDFF2F" x="0" y="0" width="10" height="10"></rect>
                        <rect id="矩形" fill="#FEFDDF" x="10" y="0" width="10" height="10"></rect>
                        <rect id="矩形" fill="#FDFF2F" x="20" y="0" width="10" height="10"></rect>
                        <rect id="矩形" fill="#B87F1D" x="30" y="0" width="10" height="10"></rect>
                        <rect id="矩形" fill="#895634" x="40" y="0" width="10" height="10"></rect>
                        <rect id="矩形" fill="#FFE294" x="50" y="0" width="20" height="10"></rect>
                        <rect id="矩形" fill="#C76A2A" x="70" y="0" width="10" height="10"></rect>
                        <rect id="矩形" fill="#B87F1D" x="130" y="0" width="10" height="10"></rect>
                        <rect id="矩形" fill="#F1A42B" x="140" y="0" width="10" height="10"></rect>
                        <rect id="矩形" fill="#FDFF2F" x="150" y="0" width="10" height="10"></rect>
                        <rect id="矩形" fill="#FEFDDF" x="160" y="0" width="10" height="10"></rect>
                        <rect id="矩形" fill="#895634" x="170" y="0" width="20" height="10"></rect>
                        <rect id="矩形" fill="#C76A2A" x="190" y="0" width="20" height="10"></rect>
                    </g>
                    <g id="10" transform="translate(50.000000, 90.000000)">
                        <rect id="矩形" fill="#FEFDDF" x="0" y="0" width="20" height="10"></rect>
                        <rect id="矩形" fill="#B87F1D" x="20" y="0" width="10" height="10"></rect>
                        <rect id="矩形" fill="#FDFF2F" x="30" y="0" width="10" height="10"></rect>
                        <rect id="矩形" fill="#895634" x="40" y="0" width="10" height="10"></rect>
                        <rect id="矩形" fill="#FFE294" x="50" y="0" width="20" height="10"></rect>
                        <rect id="矩形" fill="#C76A2A" x="70" y="0" width="10" height="10"></rect>
                        <rect id="矩形" fill="#FDFF2F" x="130" y="0" width="10" height="10"></rect>
                        <rect id="矩形" fill="#B87F1D" x="140" y="0" width="10" height="10"></rect>
                        <rect id="矩形" fill="#FEFDDF" x="150" y="0" width="20" height="10"></rect>
                        <rect id="矩形" fill="#C76A2A" x="170" y="0" width="10" height="10"></rect>
                        <rect id="矩形" fill="#FDBF35" x="180" y="0" width="10" height="10"></rect>
                        <rect id="矩形" fill="#FFE294" x="190" y="0" width="10" height="10"></rect>
                        <rect id="矩形" fill="#FDBF35" x="200" y="0" width="10" height="10"></rect>
                    </g>
                    <g id="11" transform="translate(50.000000, 100.000000)">
                        <rect id="矩形" fill="#F1A42B" x="0" y="0" width="10" height="10"></rect>
                        <rect id="矩形" fill="#B87F1D" x="10" y="0" width="10" height="10"></rect>
                        <rect id="矩形" fill="#FDFF2F" x="20" y="0" width="10" height="10"></rect>
                        <rect id="矩形" fill="#F1A42B" x="30" y="0" width="10" height="10"></rect>
                        <rect id="矩形" fill="#895634" x="40" y="0" width="10" height="10"></rect>
                        <rect id="矩形" fill="#FFE294" x="50" y="0" width="10" height="10"></rect>
                        <rect id="矩形" fill="#C76A2A" x="60" y="0" width="10" height="10"></rect>
                        <rect id="矩形" fill="#895634" x="70" y="0" width="10" height="10"></rect>
                        <rect id="矩形" fill="#F1A42B" x="130" y="0" width="10" height="10"></rect>
                        <rect id="矩形" fill="#FEFDDF" x="140" y="0" width="10" height="10"></rect>
                        <rect id="矩形" fill="#B87F1D" x="150" y="0" width="10" height="10"></rect>
                        <rect id="矩形" fill="#F1A42B" x="160" y="0" width="10" height="10"></rect>
                        <rect id="矩形" fill="#C76A2A" x="170" y="0" width="10" height="10"></rect>
                        <rect id="矩形" fill="#FFE294" x="180" y="0" width="20" height="10"></rect>
                        <rect id="矩形" fill="#FDBF35" x="200" y="0" width="10" height="10"></rect>
                    </g>
                    <g id="12" transform="translate(50.000000, 110.000000)">
                        <rect id="矩形" fill="#FDFF2F" x="0" y="0" width="10" height="10"></rect>
                        <rect id="矩形" fill="#F1A42B" x="10" y="0" width="10" height="10"></rect>
                        <rect id="矩形" fill="#B87F1D" x="20" y="0" width="10" height="10"></rect>
                        <rect id="矩形" fill="#FEFDDF" x="30" y="0" width="10" height="10"></rect>
                        <rect id="矩形" fill="#895634" x="40" y="0" width="10" height="10"></rect>
                        <rect id="矩形" fill="#C76A2A" x="50" y="0" width="10" height="10"></rect>
                        <rect id="矩形" fill="#895634" x="60" y="0" width="20" height="10"></rect>
                        <rect id="矩形" fill="#FEFDDF" x="130" y="0" width="20" height="10"></rect>
                        <rect id="矩形" fill="#FDFF2F" x="150" y="0" width="10" height="10"></rect>
                        <rect id="矩形" fill="#B87F1D" x="160" y="0" width="10" height="10"></rect>
                        <rect id="矩形" fill="#895634" x="170" y="0" width="10" height="10"></rect>
                        <rect id="矩形" fill="#FFE294" x="180" y="0" width="10" height="10"></rect>
                        <rect id="矩形" fill="#FDBF35" x="190" y="0" width="10" height="10"></rect>
                        <rect id="矩形" fill="#C76A2A" x="200" y="0" width="10" height="10"></rect>
                    </g>
                    <g id="13" transform="translate(50.000000, 120.000000)">
                        <rect id="矩形" fill="#F1A42B" x="0" y="0" width="10" height="10"></rect>
                        <rect id="矩形" fill="#FDFF2F" x="10" y="0" width="10" height="10"></rect>
                        <rect id="矩形" fill="#F1A42B" x="20" y="0" width="10" height="10"></rect>
                        <rect id="矩形" fill="#B87F1D" x="30" y="0" width="10" height="10"></rect>
                        <rect id="矩形" fill="#895634" x="40" y="0" width="10" height="10"></rect>
                        <rect id="矩形" fill="#C76A2A" x="50" y="0" width="20" height="10"></rect>
                        <rect id="矩形" fill="#B87F1D" x="130" y="0" width="10" height="10"></rect>
                        <rect id="矩形" fill="#FFE294" x="70" y="0" width="10" height="10"></rect>
                        <rect id="矩形" fill="#FDFF2F" x="140" y="0" width="10" height="10"></rect>
                        <rect id="矩形" fill="#B87F1D" x="150" y="0" width="10" height="10"></rect>
                        <rect id="矩形" fill="#FDFF2F" x="160" y="0" width="10" height="10"></rect>
                        <rect id="矩形" fill="#895634" x="170" y="0" width="30" height="10"></rect>
                        <rect id="矩形" fill="#C76A2A" x="200" y="0" width="10" height="10"></rect>
                    </g>
                    <g id="14" transform="translate(50.000000, 130.000000)">
                        <rect id="矩形" fill="#FDFF2F" x="0" y="0" width="10" height="10"></rect>
                        <rect id="矩形" fill="#FEFDDF" x="10" y="0" width="10" height="10"></rect>
                        <rect id="矩形" fill="#FDFF2F" x="20" y="0" width="10" height="10"></rect>
                        <rect id="矩形" fill="#B87F1D" x="30" y="0" width="10" height="10"></rect>
                        <rect id="矩形" fill="#895634" x="40" y="0" width="10" height="10"></rect>
                        <rect id="矩形" fill="#875534" x="50" y="0" width="10" height="10"></rect>
                        <rect id="矩形" fill="#C76A2A" x="60" y="0" width="10" height="10"></rect>
                        <rect id="矩形" fill="#FFE294" x="70" y="0" width="10" height="10"></rect>
                        <rect id="矩形" fill="#B87F1D" x="130" y="0" width="10" height="10"></rect>
                        <rect id="矩形" fill="#F1A42B" x="140" y="0" width="10" height="10"></rect>
                        <rect id="矩形" fill="#FDFF2F" x="150" y="0" width="10" height="10"></rect>
                        <rect id="矩形" fill="#FEFDDF" x="160" y="0" width="10" height="10"></rect>
                        <rect id="矩形" fill="#C76A2A" x="170" y="0" width="10" height="10"></rect>
                        <rect id="矩形" fill="#895634" x="180" y="0" width="20" height="10"></rect>
                        <rect id="矩形" fill="#C76A2A" x="200" y="0" width="10" height="10"></rect>
                    </g>
                    <g id="15" transform="translate(50.000000, 140.000000)">
                        <rect id="矩形" fill="#FEFDDF" x="0" y="0" width="20" height="10"></rect>
                        <rect id="矩形" fill="#B87F1D" x="20" y="0" width="10" height="10"></rect>
                        <rect id="矩形" fill="#FDFF2F" x="30" y="0" width="10" height="10"></rect>
                        <rect id="矩形" fill="#895634" x="40" y="0" width="10" height="10"></rect>
                        <rect id="矩形" fill="#895634" x="50" y="0" width="10" height="10"></rect>
                        <rect id="矩形" fill="#C76A2A" x="60" y="0" width="10" height="10"></rect>
                        <rect id="矩形" fill="#895634" x="70" y="0" width="10" height="10"></rect>
                        <rect id="矩形" fill="#FDFF2F" x="130" y="0" width="10" height="10"></rect>
                        <rect id="矩形" fill="#B87F1D" x="140" y="0" width="10" height="10"></rect>
                        <rect id="矩形" fill="#FEFDDF" x="150" y="0" width="20" height="10"></rect>
                        <rect id="矩形" fill="#FDBF35" x="170" y="0" width="10" height="10"></rect>
                        <rect id="矩形" fill="#C76A2A" x="180" y="0" width="20" height="10"></rect>
                        <rect id="矩形" fill="#FFE294" x="200" y="0" width="10" height="10"></rect>
                    </g>
                    <g id="16" transform="translate(50.000000, 150.000000)">
                        <rect id="矩形" fill="#F1A42B" x="0" y="0" width="10" height="10"></rect>
                        <rect id="矩形" fill="#B87F1D" x="10" y="0" width="10" height="10"></rect>
                        <rect id="矩形" fill="#FDFF2F" x="20" y="0" width="10" height="10"></rect>
                        <rect id="矩形" fill="#F1A42B" x="30" y="0" width="10" height="10"></rect>
                        <rect id="矩形" fill="#895634" x="40" y="0" width="40" height="10"></rect>
                        <rect id="矩形" fill="#F1A42B" x="130" y="0" width="10" height="10"></rect>
                        <rect id="矩形" fill="#FEFDDF" x="140" y="0" width="10" height="10"></rect>
                        <rect id="矩形" fill="#B87F1D" x="150" y="0" width="10" height="10"></rect>
                        <rect id="矩形" fill="#F1A42B" x="160" y="0" width="10" height="10"></rect>
                        <rect id="矩形" fill="#FFE294" x="170" y="0" width="20" height="10"></rect>
                        <rect id="矩形" fill="#C76A2A" x="190" y="0" width="10" height="10"></rect>
                        <rect id="矩形" fill="#895634" x="200" y="0" width="10" height="10"></rect>
                    </g>
                    <g id="17" transform="translate(50.000000, 160.000000)">
                        <rect id="矩形" fill="#FDFF2F" x="0" y="0" width="10" height="10"></rect>
                        <rect id="矩形" fill="#F1A42B" x="10" y="0" width="10" height="10"></rect>
                        <rect id="矩形" fill="#B87F1D" x="20" y="0" width="10" height="10"></rect>
                        <rect id="矩形" fill="#FEFDDF" x="30" y="0" width="10" height="10"></rect>
                        <rect id="矩形" fill="#895634" x="40" y="0" width="10" height="10"></rect>
                        <rect id="矩形" fill="#C76A2A" x="50" y="0" width="20" height="10"></rect>
                        <rect id="矩形" fill="#018800" x="70" y="0" width="10" height="10"></rect>
                        <rect id="矩形" fill="#018800" x="80" y="0" width="10" height="10"></rect>
                        <rect id="矩形" fill="#FEFDDF" x="130" y="0" width="20" height="10"></rect>
                        <rect id="矩形" fill="#FDFF2F" x="150" y="0" width="10" height="10"></rect>
                        <rect id="矩形" fill="#B87F1D" x="160" y="0" width="10" height="10"></rect>
                        <rect id="矩形" fill="#C76A2A" x="170" y="0" width="20" height="10"></rect>
                        <rect id="矩形" fill="#895634" x="190" y="0" width="20" height="10"></rect>
                    </g>
                    <g id="18" transform="translate(50.000000, 170.000000)">
                        <rect id="矩形" fill="#F1A42B" x="0" y="0" width="10" height="10"></rect>
                        <rect id="矩形" fill="#FDFF2F" x="10" y="0" width="10" height="10"></rect>
                        <rect id="矩形" fill="#F1A42B" x="20" y="0" width="10" height="10"></rect>
                        <rect id="矩形" fill="#B87F1D" x="30" y="0" width="10" height="10"></rect>
                        <rect id="矩形" fill="#895634" x="40" y="0" width="10" height="10"></rect>
                        <rect id="矩形" fill="#FFE294" x="50" y="0" width="10" height="10"></rect>
                        <rect id="矩形" fill="#018800" x="60" y="0" width="10" height="10"></rect>
                        <rect id="矩形" fill="#00FF01" x="70" y="0" width="10" height="10"></rect>
                        <rect id="矩形" fill="#91FF92" x="80" y="0" width="10" height="10"></rect>
                        <rect id="矩形" fill="#00FF01" x="90" y="0" width="10" height="10"></rect>
                        <rect id="矩形" fill="#49EA4A" x="100" y="0" width="10" height="10"></rect>
                        <rect id="矩形" fill="#00FF01" x="110" y="0" width="10" height="10"></rect>
                        <rect id="矩形" fill="#B87F1D" x="130" y="0" width="10" height="10"></rect>
                        <rect id="矩形" fill="#FDFF2F" x="140" y="0" width="10" height="10"></rect>
                        <rect id="矩形" fill="#B87F1D" x="150" y="0" width="10" height="10"></rect>
                        <rect id="矩形" fill="#FDFF2F" x="160" y="0" width="10" height="10"></rect>
                        <rect id="矩形" fill="#895634" x="170" y="0" width="10" height="10"></rect>
                        <rect id="矩形" fill="#C76A2A" x="180" y="0" width="10" height="10"></rect>
                        <rect id="矩形" fill="#FFE294" x="190" y="0" width="10" height="10"></rect>
                        <rect id="矩形" fill="#895634" x="200" y="0" width="10" height="10"></rect>
                    </g>
                    <g id="19" transform="translate(50.000000, 180.000000)">
                        <rect id="矩形" fill="#FDFF2F" x="0" y="0" width="10" height="10"></rect>
                        <rect id="矩形" fill="#FEFDDF" x="10" y="0" width="10" height="10"></rect>
                        <rect id="矩形" fill="#FDFF2F" x="20" y="0" width="10" height="10"></rect>
                        <rect id="矩形" fill="#B87F1D" x="30" y="0" width="10" height="10"></rect>
                        <rect id="矩形" fill="#895634" x="40" y="0" width="10" height="10"></rect>
                        <rect id="矩形" fill="#018800" x="50" y="0" width="10" height="10"></rect>
                        <rect id="矩形" fill="#49EA4A" x="60" y="0" width="10" height="10"></rect>
                        <rect id="矩形" fill="#00FF01" x="70" y="0" width="40" height="10"></rect>
                        <rect id="矩形" fill="#00BC01" x="110" y="0" width="10" height="10"></rect>
                        <rect id="矩形" fill="#B87F1D" x="130" y="0" width="10" height="10"></rect>
                        <rect id="矩形" fill="#F1A42B" x="140" y="0" width="10" height="10"></rect>
                        <rect id="矩形" fill="#FDFF2F" x="150" y="0" width="10" height="10"></rect>
                        <rect id="矩形" fill="#FEFDDF" x="160" y="0" width="10" height="10"></rect>
                        <rect id="矩形" fill="#C76A2A" x="170" y="0" width="10" height="10"></rect>
                        <rect id="矩形" fill="#FDBF35" x="180" y="0" width="20" height="10"></rect>
                        <rect id="矩形" fill="#C76A2A" x="200" y="0" width="10" height="10"></rect>
                    </g>
                    <g id="20" transform="translate(50.000000, 190.000000)">
                        <rect id="矩形" fill="#FEFDDF" x="0" y="0" width="20" height="10"></rect>
                        <rect id="矩形" fill="#B87F1D" x="20" y="0" width="10" height="10"></rect>
                        <rect id="矩形" fill="#FDFF2F" x="30" y="0" width="10" height="10"></rect>
                        <rect id="矩形" fill="#018800" x="40" y="0" width="10" height="10"></rect>
                        <rect id="矩形" fill="#49EA4A" x="50" y="0" width="10" height="10"></rect>
                        <rect id="矩形" fill="#00FF01" x="60" y="0" width="10" height="10"></rect>
                        <rect id="矩形" fill="#49EA4A" x="70" y="0" width="10" height="10"></rect>
                        <rect id="矩形" fill="#00FF01" x="80" y="0" width="10" height="10"></rect>
                        <rect id="矩形" fill="#91FF92" x="90" y="0" width="10" height="10"></rect>
                        <rect id="矩形" fill="#00BC01" x="100" y="0" width="10" height="10"></rect>
                        <rect id="矩形" fill="#00BC01" x="110" y="0" width="10" height="10"></rect>
                        <rect id="矩形" fill="#FDFF2F" x="130" y="0" width="10" height="10"></rect>
                        <rect id="矩形" fill="#B87F1D" x="140" y="0" width="10" height="10"></rect>
                        <rect id="矩形" fill="#FEFDDF" x="150" y="0" width="20" height="10"></rect>
                        <rect id="矩形" fill="#FFE294" x="170" y="0" width="10" height="10"></rect>
                        <rect id="矩形" fill="#C76A2A" x="180" y="0" width="10" height="10"></rect>
                        <rect id="矩形" fill="#FDBF35" x="190" y="0" width="10" height="10"></rect>
                        <rect id="矩形" fill="#895634" x="200" y="0" width="10" height="10"></rect>
                    </g>
                    <g id="21" transform="translate(50.000000, 200.000000)">
                        <rect id="矩形" fill="#F1A42B" x="0" y="0" width="10" height="10"></rect>
                        <rect id="矩形" fill="#B87F1D" x="10" y="0" width="10" height="10"></rect>
                        <rect id="矩形" fill="#FDFF2F" x="20" y="0" width="10" height="10"></rect>
                        <rect id="矩形" fill="#018800" x="30" y="0" width="10" height="10"></rect>
                        <rect id="矩形" fill="#00FF01" x="40" y="0" width="20" height="10"></rect>
                        <rect id="矩形" fill="#49EA4A" x="60" y="0" width="10" height="10"></rect>
                        <rect id="矩形" fill="#00FF01" x="70" y="0" width="10" height="10"></rect>
                        <rect id="矩形" fill="#91FF92" x="80" y="0" width="10" height="10"></rect>
                        <rect id="矩形" fill="#00BC01" x="90" y="0" width="30" height="10"></rect>
                        <rect id="矩形" fill="#F1A42B" x="130" y="0" width="10" height="10"></rect>
                        <rect id="矩形" fill="#FEFDDF" x="140" y="0" width="10" height="10"></rect>
                        <rect id="矩形" fill="#B87F1D" x="150" y="0" width="10" height="10"></rect>
                        <rect id="矩形" fill="#F1A42B" x="160" y="0" width="10" height="10"></rect>
                        <rect id="矩形" fill="#895634" x="170" y="0" width="10" height="10"></rect>
                        <rect id="矩形" fill="#C76A2A" x="180" y="0" width="10" height="10"></rect>
                        <rect id="矩形" fill="#895634" x="190" y="0" width="20" height="10"></rect>
                    </g>
                    <g id="22" transform="translate(50.000000, 210.000000)">
                        <rect id="矩形" fill="#FDFF2F" x="0" y="0" width="10" height="10"></rect>
                        <rect id="矩形" fill="#F1A42B" x="10" y="0" width="10" height="10"></rect>
                        <rect id="矩形" fill="#B87F1D" x="20" y="0" width="10" height="10"></rect>
                        <rect id="矩形" fill="#018800" x="30" y="0" width="10" height="10"></rect>
                        <rect id="矩形" fill="#00FF01" x="40" y="0" width="10" height="10"></rect>
                        <rect id="矩形" fill="#91FF92" x="50" y="0" width="10" height="10"></rect>
                        <rect id="矩形" fill="#00FF01" x="60" y="0" width="20" height="10"></rect>
                        <rect id="矩形" fill="#00BC01" x="80" y="0" width="40" height="10"></rect>
                        <rect id="矩形" fill="#FDFF2F" x="120" y="0" width="10" height="10"></rect>
                        <rect id="矩形" fill="#FEFDDF" x="130" y="0" width="20" height="10"></rect>
                        <rect id="矩形" fill="#FDFF2F" x="150" y="0" width="10" height="10"></rect>
                        <rect id="矩形" fill="#B87F1D" x="160" y="0" width="10" height="10"></rect>
                        <rect id="矩形" fill="#C76A2A" x="170" y="0" width="10" height="10"></rect>
                        <rect id="矩形" fill="#895634" x="180" y="0" width="10" height="10"></rect>
                        <rect id="矩形" fill="#FFE294" x="190" y="0" width="20" height="10"></rect>
                    </g>
                    <g id="23" transform="translate(50.000000, 220.000000)">
                        <rect id="矩形" fill="#F1A42B" x="0" y="0" width="10" height="10"></rect>
                        <rect id="矩形" fill="#FDFF2F" x="10" y="0" width="10" height="10"></rect>
                        <rect id="矩形" fill="#018800" x="20" y="0" width="10" height="10"></rect>
                        <rect id="矩形" fill="#00FF01" x="30" y="0" width="10" height="10"></rect>
                        <rect id="矩形" fill="#91FF92" x="40" y="0" width="10" height="10"></rect>
                        <rect id="矩形" fill="#00FF01" x="50" y="0" width="30" height="10"></rect>
                        <rect id="矩形" fill="#00BC01" x="80" y="0" width="30" height="10"></rect>
                        <rect id="矩形" fill="#F1A42B" x="110" y="0" width="20" height="10"></rect>
                        <rect id="矩形" fill="#B87F1D" x="130" y="0" width="10" height="10"></rect>
                        <rect id="矩形" fill="#FDFF2F" x="140" y="0" width="10" height="10"></rect>
                        <rect id="矩形" fill="#B87F1D" x="150" y="0" width="10" height="10"></rect>
                        <rect id="矩形" fill="#FDFF2F" x="160" y="0" width="10" height="10"></rect>
                        <rect id="矩形" fill="#FDBF35" x="170" y="0" width="10" height="10"></rect>
                        <rect id="矩形" fill="#C76A2A" x="180" y="0" width="10" height="10"></rect>
                        <rect id="矩形" fill="#895634" x="190" y="0" width="10" height="10"></rect>
                        <rect id="矩形" fill="#FFE294" x="200" y="0" width="10" height="10"></rect>
                    </g>
                    <g id="24" transform="translate(50.000000, 230.000000)">
                        <rect id="矩形" fill="#FDFF2F" x="0" y="0" width="10" height="10"></rect>
                        <rect id="矩形" fill="#018800" x="10" y="0" width="10" height="10"></rect>
                        <rect id="矩形" fill="#91FF92" x="20" y="0" width="10" height="10"></rect>
                        <rect id="矩形" fill="#00FF01" x="30" y="0" width="20" height="10"></rect>
                        <rect id="矩形" fill="#49EA4A" x="50" y="0" width="10" height="10"></rect>
                        <rect id="矩形" fill="#00FF01" x="60" y="0" width="10" height="10"></rect>
                        <rect id="矩形" fill="#00BC01" x="70" y="0" width="50" height="10"></rect>
                        <rect id="矩形" fill="#FDFF2F" x="120" y="0" width="10" height="10"></rect>
                        <rect id="矩形" fill="#B87F1D" x="130" y="0" width="10" height="10"></rect>
                        <rect id="矩形" fill="#F1A42B" x="140" y="0" width="10" height="10"></rect>
                        <rect id="矩形" fill="#FDFF2F" x="150" y="0" width="10" height="10"></rect>
                        <rect id="矩形" fill="#FEFDDF" x="160" y="0" width="10" height="10"></rect>
                        <rect id="矩形" fill="#FDBF35" x="170" y="0" width="20" height="10"></rect>
                        <rect id="矩形" fill="#C76A2A" x="190" y="0" width="10" height="10"></rect>
                        <rect id="矩形" fill="#895634" x="200" y="0" width="10" height="10"></rect>
                    </g>
                    <g id="25" transform="translate(50.000000, 240.000000)">
                        <rect id="矩形" fill="#018800" x="0" y="0" width="10" height="10"></rect>
                        <rect id="矩形" fill="#91FF92" x="10" y="0" width="10" height="10"></rect>
                        <rect id="矩形" fill="#00FF01" x="20" y="0" width="20" height="10"></rect>
                        <rect id="矩形" fill="#49EA4A" x="40" y="0" width="10" height="10"></rect>
                        <rect id="矩形" fill="#00FF01" x="50" y="0" width="10" height="10"></rect>
                        <rect id="矩形" fill="#00BC01" x="60" y="0" width="30" height="10"></rect>
                        <rect id="矩形" fill="#91FF92" x="90" y="0" width="10" height="10"></rect>
                        <rect id="矩形" fill="#00BC01" x="100" y="0" width="30" height="10"></rect>
                        <rect id="矩形" fill="#FDFF2F" x="130" y="0" width="10" height="10"></rect>
                        <rect id="矩形" fill="#B87F1D" x="140" y="0" width="10" height="10"></rect>
                        <rect id="矩形" fill="#FEFDDF" x="150" y="0" width="20" height="10"></rect>
                        <rect id="矩形" fill="#C76A2A" x="170" y="0" width="10" height="10"></rect>
                        <rect id="矩形" fill="#895634" x="180" y="0" width="10" height="10"></rect>
                        <rect id="矩形" fill="#C76A2A" x="190" y="0" width="10" height="10"></rect>
                        <rect id="矩形" fill="#895634" x="200" y="0" width="10" height="10"></rect>
                    </g>
                    <g id="26" transform="translate(50.000000, 250.000000)">
                        <rect id="矩形" fill="#00FF01" x="0" y="0" width="50" height="10"></rect>
                        <rect id="矩形" fill="#00BC01" x="50" y="0" width="40" height="10"></rect>
                        <rect id="矩形" fill="#91FF92" x="90" y="0" width="20" height="10"></rect>
                        <rect id="矩形" fill="#00BC01" x="110" y="0" width="40" height="10"></rect>
                        <rect id="矩形" fill="#B87F1D" x="150" y="0" width="10" height="10"></rect>
                        <rect id="矩形" fill="#F1A42B" x="160" y="0" width="10" height="10"></rect>
                        <rect id="矩形" fill="#895634" x="170" y="0" width="20" height="10"></rect>
                        <rect id="矩形" fill="#FDBF35" x="190" y="0" width="10" height="10"></rect>
                        <rect id="矩形" fill="#C76A2A" x="200" y="0" width="10" height="10"></rect>
                    </g>
                    <g id="27" transform="translate(0.000000, 260.000000)">
                        <rect id="矩形" fill="#00FF01" x="0" y="0" width="10" height="10"></rect>
                        <rect id="矩形" fill="#91FF92" x="10" y="0" width="20" height="10"></rect>
                        <rect id="矩形" fill="#00FF01" x="30" y="0" width="30" height="10"></rect>
                        <rect id="矩形" fill="#00BC01" x="60" y="0" width="230" height="10"></rect>
                    </g>
                </g>
                <g id="line" fill="#FFFFFF">
                    <rect id="矩形" x="60" y="0" width="210" height="10"></rect>
                    <rect id="矩形" x="50" y="10" width="10" height="260"></rect>
                    <rect id="矩形" x="270" y="10" width="10" height="260"></rect>
                    <rect id="矩形" x="10" y="260" width="45" height="10"></rect>
                    <rect id="矩形" x="0" y="270" width="10" height="10"></rect>
                    <rect id="矩形" x="10" y="280" width="290" height="10"></rect>
                    <rect id="矩形" x="300" y="270" width="10" height="10"></rect>
                    <rect id="矩形" x="275" y="260" width="35" height="10"></rect>
                    <rect id="矩形" x="140" y="60" width="50" height="10"></rect>
                    <rect id="矩形" x="140" y="70" width="10" height="100"></rect>
                    <rect id="矩形" x="150" y="170" width="40" height="10"></rect>
                    <rect id="矩形" x="180" y="65" width="10" height="155"></rect>
                </g>
            </g>
        </g>
    </g>
</svg>