<?xml version="1.0" encoding="UTF-8"?><svg version="1.1" width="48px" height="52px" viewBox="0 0 48.0 52.0" xmlns="http://www.w3.org/2000/svg" xmlns:xlink="http://www.w3.org/1999/xlink"><defs><clipPath id="i0"><path d="M1920,0 L1920,1080 L0,1080 L0,0 L1920,0 Z"></path></clipPath><clipPath id="i1"><path d="M9.66396151,0 C15.0010828,0 19.3277775,4.32669473 19.3277775,9.66394828 C19.3277775,15.0012018 15.0010828,19.3278966 9.66396151,19.3278966 C4.3266815,19.3278966 0,15.0012018 0,9.66394828 C0,4.32669473 4.3266815,0 9.66396151,0 Z"></path></clipPath><clipPath id="i2"><path d="M19.3277775,0 L19.3277775,19.3278966 L0,19.3278966 L0,0 L19.3277775,0 Z"></path></clipPath><linearGradient id="i3" x1="9.66396151px" y1="0px" x2="9.66396151px" y2="19.3278966px" gradientUnits="userSpaceOnUse"><stop stop-color="#61CF90" offset="0%"></stop><stop stop-color="#462646" offset="100%"></stop></linearGradient><clipPath id="i4"><path d="M8.62838349,0 C13.3938073,0 17.2568993,3.86309195 17.2568993,8.62838349 C17.2568993,13.3938073 13.3938073,17.2568993 8.62838349,17.2568993 C3.86309195,17.2568993 0,13.3938073 0,8.62838349 C0,3.86309195 3.86309195,0 8.62838349,0 Z"></path></clipPath><clipPath id="i5"><path d="M17.2568993,0 L17.2568993,17.2568993 L0,17.2568993 L0,0 L17.2568993,0 Z"></path></clipPath><clipPath id="i6"><path d="M4.83184183,0 C7.50046861,0 9.66381597,2.16334737 9.66381597,4.83197414 C9.66381597,7.50060091 7.50046861,9.66394828 4.83184183,9.66394828 C2.16334737,9.66394828 0,7.50060091 0,4.83197414 C0,2.16334737 2.16334737,0 4.83184183,0 Z"></path></clipPath><clipPath id="i7"><path d="M9.66381597,0 L9.66381597,9.66394828 L0,9.66394828 L0,0 L9.66381597,0 Z"></path></clipPath><clipPath id="i8"><path d="M11.1595436,0 C17.322788,0 22.3190871,4.99628719 22.3190871,11.1595052 C22.3190871,17.3226703 17.322788,22.3189694 11.1595436,22.3189694 C4.9962991,22.3189694 0,17.3226703 0,11.1595052 C0,4.99628719 4.9962991,0 11.1595436,0 Z"></path></clipPath><clipPath id="i9"><path d="M22.3190871,0 L22.3190871,22.3189694 L0,22.3189694 L0,0 L22.3190871,0 Z"></path></clipPath><clipPath id="i10"><path d="M8.05325936,0 C12.5009486,0 16.1064923,3.60562305 16.1064923,8.05324613 C16.1064923,12.5010015 12.5009486,16.1064923 8.05325936,16.1064923 C3.60557012,16.1064923 0,12.5010015 0,8.05324613 C0,3.60562305 3.60557012,0 8.05325936,0 Z"></path></clipPath><clipPath id="i11"><path d="M16.1064923,0 L16.1064923,16.1064923 L0,16.1064923 L0,0 L16.1064923,0 Z"></path></clipPath><clipPath id="i12"><path d="M4.02662307,0 C6.25056692,0 8.05324613,1.80281152 8.05324613,4.02662307 C8.05324613,6.25043461 6.25056692,8.05324613 4.02662307,8.05324613 C1.80281152,8.05324613 0,6.25043461 0,4.02662307 C0,1.80281152 1.80281152,0 4.02662307,0 Z"></path></clipPath><clipPath id="i13"><path d="M8.05324613,0 L8.05324613,8.05324613 L0,8.05324613 L0,0 L8.05324613,0 Z"></path></clipPath><clipPath id="i14"><path d="M6.44254398,0 C10.0006689,0 12.885088,2.88441905 12.885088,6.44267629 C12.885088,10.0008012 10.0006689,12.8852203 6.44254398,12.8852203 C2.88441905,12.8852203 0,10.0008012 0,6.44267629 C0,2.88441905 2.88441905,0 6.44254398,0 Z"></path></clipPath><clipPath id="i15"><path d="M12.885088,0 L12.885088,12.8852203 L0,12.8852203 L0,0 L12.885088,0 Z"></path></clipPath><linearGradient id="i16" x1="6.44254398px" y1="0px" x2="6.44254398px" y2="12.8852203px" gradientUnits="userSpaceOnUse"><stop stop-color="#20D99C" offset="0%"></stop><stop stop-color="#1C6963" offset="100%"></stop></linearGradient></defs><g transform="translate(-1322.0 -259.0)"><g clip-path="url(#i0)"><g transform="translate(1322.000000000001 259.00000000000006)"><g transform="translate(5.2914621880954655 32.67091267804062)"><g transform=""><g clip-path="url(#i1)"><g transform=""><g transform=""><g clip-path="url(#i2)"><polygon points="0,0 19.3277775,0 19.3277775,19.3278966 0,19.3278966 0,0" stroke="none" fill="url(#i3)"></polygon></g></g></g></g></g></g><g transform="translate(28.072445365018215 27.61004789223796)"><g transform=""><g clip-path="url(#i4)"><g transform=""><g transform=""><g clip-path="url(#i5)"><polygon points="0,0 17.2568993,0 17.2568993,17.2568993 0,17.2568993 0,0" stroke="none" fill="#5CAD81"></polygon></g></g></g></g></g></g><g transform="translate(16.45247436614227 23.00894899832474)"><g clip-path="url(#i6)"><g clip-path="url(#i7)"><polygon points="0,0 9.66381597,0 9.66381597,9.66394828 0,9.66394828 0,0" stroke="none" fill="#7B7B7B"></polygon></g></g></g><g transform="translate(14.380550951183979 0.0)"><g clip-path="url(#i8)"><g clip-path="url(#i9)"><polygon points="0,0 22.3190871,0 22.3190871,22.3189694 0,22.3189694 0,0" stroke="none" fill="#63D993"></polygon></g></g></g><g transform="translate(0.0 15.18551965924098)"><g clip-path="url(#i10)"><g clip-path="url(#i11)"><polygon points="0,0 16.1064923,0 16.1064923,16.1064923 0,16.1064923 0,0" stroke="none" fill="#FF5174"></polygon></g></g></g><g transform="translate(24.61963659360845 43.94675386833704)"><g transform=""><g clip-path="url(#i12)"><g transform=""><g transform=""><g clip-path="url(#i13)"><polygon points="0,0 8.05324613,0 8.05324613,8.05324613 0,8.05324613 0,0" stroke="none" fill="#FFD766"></polygon></g></g></g></g></g></g><g transform="translate(34.74414460657499 14.034318788642391)"><g clip-path="url(#i14)"><g clip-path="url(#i15)"><polygon points="0,0 12.885088,0 12.885088,12.8852203 0,12.8852203 0,0" stroke="none" fill="url(#i16)"></polygon></g></g></g></g></g></g></svg>