<?xml version="1.0" encoding="UTF-8"?>
<svg width="1292px" height="290px" viewBox="0 0 1292 290" version="1.1" xmlns="http://www.w3.org/2000/svg" xmlns:xlink="http://www.w3.org/1999/xlink">
    <title>Logo Horizontal_white</title>
    <g id="Defusion_Logo" stroke="none" stroke-width="1" fill="none" fill-rule="evenodd">
        <g id="style3_white" transform="translate(-314.000000, -395.000000)">
            <g id="Logo-Horizontal_white" transform="translate(314.000000, 395.000000)">
                <g id="Logo-Mark">
                    <g id="pixel" transform="translate(10.000000, 10.000000)">
                        <g id="1" transform="translate(50.000000, 0.000000)">
                            <rect id="矩形" fill="#F1A42B" x="0" y="0" width="10" height="10"></rect>
                            <rect id="矩形" fill="#B87F1D" x="10" y="0" width="10" height="10"></rect>
                            <rect id="矩形" fill="#FDFF2F" x="20" y="0" width="10" height="10"></rect>
                            <rect id="矩形" fill="#F1A42B" x="30" y="0" width="10" height="10"></rect>
                            <rect id="矩形" fill="#FEFDDF" x="40" y="0" width="10" height="10"></rect>
                            <rect id="矩形" fill="#B87F1D" x="50" y="0" width="10" height="10"></rect>
                            <rect id="矩形" fill="#FDFF2F" x="60" y="0" width="20" height="10"></rect>
                            <rect id="矩形" fill="#F1A42B" x="80" y="0" width="10" height="10"></rect>
                            <rect id="矩形" fill="#FEFDDF" x="90" y="0" width="10" height="10"></rect>
                            <rect id="矩形" fill="#B87F1D" x="100" y="0" width="10" height="10"></rect>
                            <rect id="矩形" fill="#F1A42B" x="110" y="0" width="10" height="10"></rect>
                            <rect id="矩形" fill="#FDFF2F" x="120" y="0" width="10" height="10"></rect>
                            <rect id="矩形" fill="#F1A42B" x="130" y="0" width="10" height="10"></rect>
                            <rect id="矩形" fill="#FEFDDF" x="140" y="0" width="10" height="10"></rect>
                            <rect id="矩形" fill="#B87F1D" x="150" y="0" width="10" height="10"></rect>
                            <rect id="矩形" fill="#F1A42B" x="160" y="0" width="10" height="10"></rect>
                            <rect id="矩形" fill="#895634" x="170" y="0" width="10" height="10"></rect>
                            <rect id="矩形" fill="#FFE294" x="180" y="0" width="20" height="10"></rect>
                            <rect id="矩形" fill="#C76A2A" x="200" y="0" width="10" height="10"></rect>
                        </g>
                        <g id="2" transform="translate(50.000000, 10.000000)">
                            <rect id="矩形" fill="#FDFF2F" x="0" y="0" width="10" height="10"></rect>
                            <rect id="矩形" fill="#F1A42B" x="10" y="0" width="10" height="10"></rect>
                            <rect id="矩形" fill="#B87F1D" x="20" y="0" width="10" height="10"></rect>
                            <rect id="矩形" fill="#FEFDDF" x="30" y="0" width="20" height="10"></rect>
                            <rect id="矩形" fill="#FDFF2F" x="50" y="0" width="10" height="10"></rect>
                            <rect id="矩形" fill="#B87F1D" x="60" y="0" width="10" height="10"></rect>
                            <rect id="矩形" fill="#F1A42B" x="70" y="0" width="10" height="10"></rect>
                            <rect id="矩形" fill="#FEFDDF" x="80" y="0" width="20" height="10"></rect>
                            <rect id="矩形" fill="#FDFF2F" x="100" y="0" width="10" height="10"></rect>
                            <rect id="矩形" fill="#B87F1D" x="110" y="0" width="10" height="10"></rect>
                            <rect id="矩形" fill="#F1A42B" x="120" y="0" width="10" height="10"></rect>
                            <rect id="矩形" fill="#FEFDDF" x="130" y="0" width="20" height="10"></rect>
                            <rect id="矩形" fill="#FDFF2F" x="150" y="0" width="10" height="10"></rect>
                            <rect id="矩形" fill="#B87F1D" x="160" y="0" width="10" height="10"></rect>
                            <rect id="矩形" fill="#895634" x="170" y="0" width="10" height="10"></rect>
                            <rect id="矩形" fill="#FFE294" x="180" y="0" width="30" height="10"></rect>
                        </g>
                        <g id="3" transform="translate(50.000000, 20.000000)">
                            <rect id="矩形" fill="#F1A42B" x="0" y="0" width="10" height="10"></rect>
                            <rect id="矩形" fill="#FDFF2F" x="10" y="0" width="10" height="10"></rect>
                            <rect id="矩形" fill="#F1A42B" x="20" y="0" width="10" height="10"></rect>
                            <rect id="矩形" fill="#B87F1D" x="30" y="0" width="10" height="10"></rect>
                            <rect id="矩形" fill="#FDFF2F" x="40" y="0" width="10" height="10"></rect>
                            <rect id="矩形" fill="#F1A42B" x="50" y="0" width="10" height="10"></rect>
                            <rect id="矩形" fill="#FDFF2F" x="60" y="0" width="10" height="10"></rect>
                            <rect id="矩形" fill="#F1A42B" x="70" y="0" width="10" height="10"></rect>
                            <rect id="矩形" fill="#B87F1D" x="80" y="0" width="10" height="10"></rect>
                            <rect id="矩形" fill="#FDFF2F" x="90" y="0" width="10" height="10"></rect>
                            <rect id="矩形" fill="#F1A42B" x="100" y="0" width="10" height="10"></rect>
                            <rect id="矩形" fill="#FDFF2F" x="110" y="0" width="10" height="10"></rect>
                            <rect id="矩形" fill="#F1A42B" x="120" y="0" width="10" height="10"></rect>
                            <rect id="矩形" fill="#B87F1D" x="130" y="0" width="10" height="10"></rect>
                            <rect id="矩形" fill="#FDFF2F" x="140" y="0" width="10" height="10"></rect>
                            <rect id="矩形" fill="#B87F1D" x="150" y="0" width="10" height="10"></rect>
                            <rect id="矩形" fill="#FDFF2F" x="160" y="0" width="10" height="10"></rect>
                            <rect id="矩形" fill="#895634" x="170" y="0" width="20" height="10"></rect>
                            <rect id="矩形" fill="#C76A2A" x="190" y="0" width="10" height="10"></rect>
                            <rect id="矩形" fill="#FFE294" x="200" y="0" width="10" height="10"></rect>
                        </g>
                        <g id="4" transform="translate(50.000000, 30.000000)">
                            <rect id="矩形" fill="#FDFF2F" x="0" y="0" width="10" height="10"></rect>
                            <rect id="矩形" fill="#FEFDDF" x="10" y="0" width="10" height="10"></rect>
                            <rect id="矩形" fill="#FDFF2F" x="20" y="0" width="10" height="10"></rect>
                            <rect id="矩形" fill="#B87F1D" x="30" y="0" width="10" height="10"></rect>
                            <rect id="矩形" fill="#F1A42B" x="40" y="0" width="10" height="10"></rect>
                            <rect id="矩形" fill="#FDFF2F" x="50" y="0" width="10" height="10"></rect>
                            <rect id="矩形" fill="#FEFDDF" x="60" y="0" width="10" height="10"></rect>
                            <rect id="矩形" fill="#FDFF2F" x="70" y="0" width="10" height="10"></rect>
                            <rect id="矩形" fill="#B87F1D" x="80" y="0" width="10" height="10"></rect>
                            <rect id="矩形" fill="#F1A42B" x="90" y="0" width="10" height="10"></rect>
                            <rect id="矩形" fill="#FDFF2F" x="100" y="0" width="10" height="10"></rect>
                            <rect id="矩形" fill="#FEFDDF" x="110" y="0" width="10" height="10"></rect>
                            <rect id="矩形" fill="#FDFF2F" x="120" y="0" width="10" height="10"></rect>
                            <rect id="矩形" fill="#B87F1D" x="130" y="0" width="10" height="10"></rect>
                            <rect id="矩形" fill="#F1A42B" x="140" y="0" width="10" height="10"></rect>
                            <rect id="矩形" fill="#FDFF2F" x="150" y="0" width="10" height="10"></rect>
                            <rect id="矩形" fill="#FEFDDF" x="160" y="0" width="10" height="10"></rect>
                            <rect id="矩形" fill="#FDBF35" x="170" y="0" width="10" height="10"></rect>
                            <rect id="矩形" fill="#895634" x="180" y="0" width="20" height="10"></rect>
                            <rect id="矩形" fill="#FDBF35" x="200" y="0" width="10" height="10"></rect>
                        </g>
                        <g id="5" transform="translate(50.000000, 40.000000)">
                            <rect id="矩形" fill="#FDFFE7" x="0" y="0" width="10" height="10"></rect>
                            <rect id="矩形" fill="#FDFFE7" x="10" y="0" width="10" height="10"></rect>
                            <rect id="矩形" fill="#B87F1D" x="20" y="0" width="10" height="10"></rect>
                            <rect id="矩形" fill="#FDFF2F" x="30" y="0" width="10" height="10"></rect>
                            <rect id="矩形" fill="#B87F1D" x="40" y="0" width="10" height="10"></rect>
                            <rect id="矩形" fill="#FEFDDF" x="50" y="0" width="20" height="10"></rect>
                            <rect id="矩形" fill="#B87F1D" x="70" y="0" width="10" height="10"></rect>
                            <rect id="矩形" fill="#FDFF2F" x="80" y="0" width="10" height="10"></rect>
                            <rect id="矩形" fill="#B87F1D" x="90" y="0" width="10" height="10"></rect>
                            <rect id="矩形" fill="#FEFDDF" x="100" y="0" width="20" height="10"></rect>
                            <rect id="矩形" fill="#B87F1D" x="120" y="0" width="10" height="10"></rect>
                            <rect id="矩形" fill="#FDFF2F" x="130" y="0" width="10" height="10"></rect>
                            <rect id="矩形" fill="#B87F1D" x="140" y="0" width="10" height="10"></rect>
                            <rect id="矩形" fill="#FEFDDF" x="150" y="0" width="20" height="10"></rect>
                            <rect id="矩形" fill="#C76A2A" x="180" y="0" width="30" height="10"></rect>
                            <rect id="矩形" fill="#FDBF35" x="170" y="0" width="10" height="10"></rect>
                        </g>
                        <g id="6" transform="translate(50.000000, 50.000000)">
                            <rect id="矩形" fill="#F1A42B" x="0" y="0" width="10" height="10"></rect>
                            <rect id="矩形" fill="#B87F1D" x="10" y="0" width="10" height="10"></rect>
                            <rect id="矩形" fill="#FDFF2F" x="20" y="0" width="10" height="10"></rect>
                            <rect id="矩形" fill="#F1A42B" x="30" y="0" width="10" height="10"></rect>
                            <rect id="矩形" fill="#6E3A12" x="40" y="0" width="40" height="10"></rect>
                            <rect id="矩形" fill="#F1A42B" x="130" y="0" width="10" height="10"></rect>
                            <rect id="矩形" fill="#FEFDDF" x="140" y="0" width="10" height="10"></rect>
                            <rect id="矩形" fill="#B87F1D" x="150" y="0" width="10" height="10"></rect>
                            <rect id="矩形" fill="#F1A42B" x="160" y="0" width="10" height="10"></rect>
                            <rect id="矩形" fill="#895634" x="170" y="0" width="10" height="10"></rect>
                            <rect id="矩形" fill="#FFE294" x="180" y="0" width="20" height="10"></rect>
                            <rect id="矩形" fill="#895634" x="200" y="0" width="10" height="10"></rect>
                        </g>
                        <g id="7" transform="translate(50.000000, 60.000000)">
                            <rect id="矩形" fill="#FDFF2F" x="0" y="0" width="10" height="10"></rect>
                            <rect id="矩形" fill="#F1A42B" x="10" y="0" width="10" height="10"></rect>
                            <rect id="矩形" fill="#B87F1D" x="20" y="0" width="10" height="10"></rect>
                            <rect id="矩形" fill="#FEFDDF" x="30" y="0" width="10" height="10"></rect>
                            <rect id="矩形" fill="#895634" x="40" y="0" width="10" height="10"></rect>
                            <rect id="矩形" fill="#C76A2A" x="50" y="0" width="10" height="10"></rect>
                            <rect id="矩形" fill="#FFE294" x="60" y="0" width="10" height="10"></rect>
                            <rect id="矩形" fill="#895634" x="70" y="0" width="10" height="10"></rect>
                            <rect id="矩形" fill="#FEFDDF" x="130" y="0" width="20" height="10"></rect>
                            <rect id="矩形" fill="#FDFF2F" x="150" y="0" width="10" height="10"></rect>
                            <rect id="矩形" fill="#B87F1D" x="160" y="0" width="10" height="10"></rect>
                            <rect id="矩形" fill="#F1A42B" x="170" y="0" width="10" height="10"></rect>
                            <rect id="矩形" fill="#FFE294" x="180" y="0" width="20" height="10"></rect>
                            <rect id="矩形" fill="#895634" x="200" y="0" width="10" height="10"></rect>
                        </g>
                        <g id="8" transform="translate(50.000000, 70.000000)">
                            <rect id="矩形" fill="#F1A42B" x="0" y="0" width="10" height="10"></rect>
                            <rect id="矩形" fill="#FDFF2F" x="10" y="0" width="10" height="10"></rect>
                            <rect id="矩形" fill="#F1A42B" x="20" y="0" width="10" height="10"></rect>
                            <rect id="矩形" fill="#B87F1D" x="30" y="0" width="10" height="10"></rect>
                            <rect id="矩形" fill="#895634" x="40" y="0" width="20" height="10"></rect>
                            <rect id="矩形" fill="#C76A2A" x="60" y="0" width="20" height="10"></rect>
                            <rect id="矩形" fill="#B87F1D" x="130" y="0" width="10" height="10"></rect>
                            <rect id="矩形" fill="#FDFF2F" x="140" y="0" width="10" height="10"></rect>
                            <rect id="矩形" fill="#B87F1D" x="150" y="0" width="10" height="10"></rect>
                            <rect id="矩形" fill="#FDFF2F" x="160" y="0" width="10" height="10"></rect>
                            <rect id="矩形" fill="#C76A2A" x="170" y="0" width="10" height="10"></rect>
                            <rect id="矩形" fill="#F1A42B" x="180" y="0" width="10" height="10"></rect>
                            <rect id="矩形" fill="#895634" x="190" y="0" width="20" height="10"></rect>
                        </g>
                        <g id="9" transform="translate(50.000000, 80.000000)">
                            <rect id="矩形" fill="#FDFF2F" x="0" y="0" width="10" height="10"></rect>
                            <rect id="矩形" fill="#FEFDDF" x="10" y="0" width="10" height="10"></rect>
                            <rect id="矩形" fill="#FDFF2F" x="20" y="0" width="10" height="10"></rect>
                            <rect id="矩形" fill="#B87F1D" x="30" y="0" width="10" height="10"></rect>
                            <rect id="矩形" fill="#895634" x="40" y="0" width="10" height="10"></rect>
                            <rect id="矩形" fill="#FFE294" x="50" y="0" width="20" height="10"></rect>
                            <rect id="矩形" fill="#C76A2A" x="70" y="0" width="10" height="10"></rect>
                            <rect id="矩形" fill="#B87F1D" x="130" y="0" width="10" height="10"></rect>
                            <rect id="矩形" fill="#F1A42B" x="140" y="0" width="10" height="10"></rect>
                            <rect id="矩形" fill="#FDFF2F" x="150" y="0" width="10" height="10"></rect>
                            <rect id="矩形" fill="#FEFDDF" x="160" y="0" width="10" height="10"></rect>
                            <rect id="矩形" fill="#895634" x="170" y="0" width="20" height="10"></rect>
                            <rect id="矩形" fill="#C76A2A" x="190" y="0" width="20" height="10"></rect>
                        </g>
                        <g id="10" transform="translate(50.000000, 90.000000)">
                            <rect id="矩形" fill="#FEFDDF" x="0" y="0" width="20" height="10"></rect>
                            <rect id="矩形" fill="#B87F1D" x="20" y="0" width="10" height="10"></rect>
                            <rect id="矩形" fill="#FDFF2F" x="30" y="0" width="10" height="10"></rect>
                            <rect id="矩形" fill="#895634" x="40" y="0" width="10" height="10"></rect>
                            <rect id="矩形" fill="#FFE294" x="50" y="0" width="20" height="10"></rect>
                            <rect id="矩形" fill="#C76A2A" x="70" y="0" width="10" height="10"></rect>
                            <rect id="矩形" fill="#FDFF2F" x="130" y="0" width="10" height="10"></rect>
                            <rect id="矩形" fill="#B87F1D" x="140" y="0" width="10" height="10"></rect>
                            <rect id="矩形" fill="#FEFDDF" x="150" y="0" width="20" height="10"></rect>
                            <rect id="矩形" fill="#C76A2A" x="170" y="0" width="10" height="10"></rect>
                            <rect id="矩形" fill="#FDBF35" x="180" y="0" width="10" height="10"></rect>
                            <rect id="矩形" fill="#FFE294" x="190" y="0" width="10" height="10"></rect>
                            <rect id="矩形" fill="#FDBF35" x="200" y="0" width="10" height="10"></rect>
                        </g>
                        <g id="11" transform="translate(50.000000, 100.000000)">
                            <rect id="矩形" fill="#F1A42B" x="0" y="0" width="10" height="10"></rect>
                            <rect id="矩形" fill="#B87F1D" x="10" y="0" width="10" height="10"></rect>
                            <rect id="矩形" fill="#FDFF2F" x="20" y="0" width="10" height="10"></rect>
                            <rect id="矩形" fill="#F1A42B" x="30" y="0" width="10" height="10"></rect>
                            <rect id="矩形" fill="#895634" x="40" y="0" width="10" height="10"></rect>
                            <rect id="矩形" fill="#FFE294" x="50" y="0" width="10" height="10"></rect>
                            <rect id="矩形" fill="#C76A2A" x="60" y="0" width="10" height="10"></rect>
                            <rect id="矩形" fill="#895634" x="70" y="0" width="10" height="10"></rect>
                            <rect id="矩形" fill="#F1A42B" x="130" y="0" width="10" height="10"></rect>
                            <rect id="矩形" fill="#FEFDDF" x="140" y="0" width="10" height="10"></rect>
                            <rect id="矩形" fill="#B87F1D" x="150" y="0" width="10" height="10"></rect>
                            <rect id="矩形" fill="#F1A42B" x="160" y="0" width="10" height="10"></rect>
                            <rect id="矩形" fill="#C76A2A" x="170" y="0" width="10" height="10"></rect>
                            <rect id="矩形" fill="#FFE294" x="180" y="0" width="20" height="10"></rect>
                            <rect id="矩形" fill="#FDBF35" x="200" y="0" width="10" height="10"></rect>
                        </g>
                        <g id="12" transform="translate(50.000000, 110.000000)">
                            <rect id="矩形" fill="#FDFF2F" x="0" y="0" width="10" height="10"></rect>
                            <rect id="矩形" fill="#F1A42B" x="10" y="0" width="10" height="10"></rect>
                            <rect id="矩形" fill="#B87F1D" x="20" y="0" width="10" height="10"></rect>
                            <rect id="矩形" fill="#FEFDDF" x="30" y="0" width="10" height="10"></rect>
                            <rect id="矩形" fill="#895634" x="40" y="0" width="10" height="10"></rect>
                            <rect id="矩形" fill="#C76A2A" x="50" y="0" width="10" height="10"></rect>
                            <rect id="矩形" fill="#895634" x="60" y="0" width="20" height="10"></rect>
                            <rect id="矩形" fill="#FEFDDF" x="130" y="0" width="20" height="10"></rect>
                            <rect id="矩形" fill="#FDFF2F" x="150" y="0" width="10" height="10"></rect>
                            <rect id="矩形" fill="#B87F1D" x="160" y="0" width="10" height="10"></rect>
                            <rect id="矩形" fill="#895634" x="170" y="0" width="10" height="10"></rect>
                            <rect id="矩形" fill="#FFE294" x="180" y="0" width="10" height="10"></rect>
                            <rect id="矩形" fill="#FDBF35" x="190" y="0" width="10" height="10"></rect>
                            <rect id="矩形" fill="#C76A2A" x="200" y="0" width="10" height="10"></rect>
                        </g>
                        <g id="13" transform="translate(50.000000, 120.000000)">
                            <rect id="矩形" fill="#F1A42B" x="0" y="0" width="10" height="10"></rect>
                            <rect id="矩形" fill="#FDFF2F" x="10" y="0" width="10" height="10"></rect>
                            <rect id="矩形" fill="#F1A42B" x="20" y="0" width="10" height="10"></rect>
                            <rect id="矩形" fill="#B87F1D" x="30" y="0" width="10" height="10"></rect>
                            <rect id="矩形" fill="#895634" x="40" y="0" width="10" height="10"></rect>
                            <rect id="矩形" fill="#C76A2A" x="50" y="0" width="20" height="10"></rect>
                            <rect id="矩形" fill="#B87F1D" x="130" y="0" width="10" height="10"></rect>
                            <rect id="矩形" fill="#FFE294" x="70" y="0" width="10" height="10"></rect>
                            <rect id="矩形" fill="#FDFF2F" x="140" y="0" width="10" height="10"></rect>
                            <rect id="矩形" fill="#B87F1D" x="150" y="0" width="10" height="10"></rect>
                            <rect id="矩形" fill="#FDFF2F" x="160" y="0" width="10" height="10"></rect>
                            <rect id="矩形" fill="#895634" x="170" y="0" width="30" height="10"></rect>
                            <rect id="矩形" fill="#C76A2A" x="200" y="0" width="10" height="10"></rect>
                        </g>
                        <g id="14" transform="translate(50.000000, 130.000000)">
                            <rect id="矩形" fill="#FDFF2F" x="0" y="0" width="10" height="10"></rect>
                            <rect id="矩形" fill="#FEFDDF" x="10" y="0" width="10" height="10"></rect>
                            <rect id="矩形" fill="#FDFF2F" x="20" y="0" width="10" height="10"></rect>
                            <rect id="矩形" fill="#B87F1D" x="30" y="0" width="10" height="10"></rect>
                            <rect id="矩形" fill="#895634" x="40" y="0" width="10" height="10"></rect>
                            <rect id="矩形" fill="#875534" x="50" y="0" width="10" height="10"></rect>
                            <rect id="矩形" fill="#C76A2A" x="60" y="0" width="10" height="10"></rect>
                            <rect id="矩形" fill="#FFE294" x="70" y="0" width="10" height="10"></rect>
                            <rect id="矩形" fill="#B87F1D" x="130" y="0" width="10" height="10"></rect>
                            <rect id="矩形" fill="#F1A42B" x="140" y="0" width="10" height="10"></rect>
                            <rect id="矩形" fill="#FDFF2F" x="150" y="0" width="10" height="10"></rect>
                            <rect id="矩形" fill="#FEFDDF" x="160" y="0" width="10" height="10"></rect>
                            <rect id="矩形" fill="#C76A2A" x="170" y="0" width="10" height="10"></rect>
                            <rect id="矩形" fill="#895634" x="180" y="0" width="20" height="10"></rect>
                            <rect id="矩形" fill="#C76A2A" x="200" y="0" width="10" height="10"></rect>
                        </g>
                        <g id="15" transform="translate(50.000000, 140.000000)">
                            <rect id="矩形" fill="#FEFDDF" x="0" y="0" width="20" height="10"></rect>
                            <rect id="矩形" fill="#B87F1D" x="20" y="0" width="10" height="10"></rect>
                            <rect id="矩形" fill="#FDFF2F" x="30" y="0" width="10" height="10"></rect>
                            <rect id="矩形" fill="#895634" x="40" y="0" width="10" height="10"></rect>
                            <rect id="矩形" fill="#895634" x="50" y="0" width="10" height="10"></rect>
                            <rect id="矩形" fill="#C76A2A" x="60" y="0" width="10" height="10"></rect>
                            <rect id="矩形" fill="#895634" x="70" y="0" width="10" height="10"></rect>
                            <rect id="矩形" fill="#FDFF2F" x="130" y="0" width="10" height="10"></rect>
                            <rect id="矩形" fill="#B87F1D" x="140" y="0" width="10" height="10"></rect>
                            <rect id="矩形" fill="#FEFDDF" x="150" y="0" width="20" height="10"></rect>
                            <rect id="矩形" fill="#FDBF35" x="170" y="0" width="10" height="10"></rect>
                            <rect id="矩形" fill="#C76A2A" x="180" y="0" width="20" height="10"></rect>
                            <rect id="矩形" fill="#FFE294" x="200" y="0" width="10" height="10"></rect>
                        </g>
                        <g id="16" transform="translate(50.000000, 150.000000)">
                            <rect id="矩形" fill="#F1A42B" x="0" y="0" width="10" height="10"></rect>
                            <rect id="矩形" fill="#B87F1D" x="10" y="0" width="10" height="10"></rect>
                            <rect id="矩形" fill="#FDFF2F" x="20" y="0" width="10" height="10"></rect>
                            <rect id="矩形" fill="#F1A42B" x="30" y="0" width="10" height="10"></rect>
                            <rect id="矩形" fill="#895634" x="40" y="0" width="40" height="10"></rect>
                            <rect id="矩形" fill="#F1A42B" x="130" y="0" width="10" height="10"></rect>
                            <rect id="矩形" fill="#FEFDDF" x="140" y="0" width="10" height="10"></rect>
                            <rect id="矩形" fill="#B87F1D" x="150" y="0" width="10" height="10"></rect>
                            <rect id="矩形" fill="#F1A42B" x="160" y="0" width="10" height="10"></rect>
                            <rect id="矩形" fill="#FFE294" x="170" y="0" width="20" height="10"></rect>
                            <rect id="矩形" fill="#C76A2A" x="190" y="0" width="10" height="10"></rect>
                            <rect id="矩形" fill="#895634" x="200" y="0" width="10" height="10"></rect>
                        </g>
                        <g id="17" transform="translate(50.000000, 160.000000)">
                            <rect id="矩形" fill="#FDFF2F" x="0" y="0" width="10" height="10"></rect>
                            <rect id="矩形" fill="#F1A42B" x="10" y="0" width="10" height="10"></rect>
                            <rect id="矩形" fill="#B87F1D" x="20" y="0" width="10" height="10"></rect>
                            <rect id="矩形" fill="#FEFDDF" x="30" y="0" width="10" height="10"></rect>
                            <rect id="矩形" fill="#895634" x="40" y="0" width="10" height="10"></rect>
                            <rect id="矩形" fill="#C76A2A" x="50" y="0" width="20" height="10"></rect>
                            <rect id="矩形" fill="#018800" x="70" y="0" width="10" height="10"></rect>
                            <rect id="矩形" fill="#018800" x="80" y="0" width="10" height="10"></rect>
                            <rect id="矩形" fill="#FEFDDF" x="130" y="0" width="20" height="10"></rect>
                            <rect id="矩形" fill="#FDFF2F" x="150" y="0" width="10" height="10"></rect>
                            <rect id="矩形" fill="#B87F1D" x="160" y="0" width="10" height="10"></rect>
                            <rect id="矩形" fill="#C76A2A" x="170" y="0" width="20" height="10"></rect>
                            <rect id="矩形" fill="#895634" x="190" y="0" width="20" height="10"></rect>
                        </g>
                        <g id="18" transform="translate(50.000000, 170.000000)">
                            <rect id="矩形" fill="#F1A42B" x="0" y="0" width="10" height="10"></rect>
                            <rect id="矩形" fill="#FDFF2F" x="10" y="0" width="10" height="10"></rect>
                            <rect id="矩形" fill="#F1A42B" x="20" y="0" width="10" height="10"></rect>
                            <rect id="矩形" fill="#B87F1D" x="30" y="0" width="10" height="10"></rect>
                            <rect id="矩形" fill="#895634" x="40" y="0" width="10" height="10"></rect>
                            <rect id="矩形" fill="#FFE294" x="50" y="0" width="10" height="10"></rect>
                            <rect id="矩形" fill="#018800" x="60" y="0" width="10" height="10"></rect>
                            <rect id="矩形" fill="#00FF01" x="70" y="0" width="10" height="10"></rect>
                            <rect id="矩形" fill="#91FF92" x="80" y="0" width="10" height="10"></rect>
                            <rect id="矩形" fill="#00FF01" x="90" y="0" width="10" height="10"></rect>
                            <rect id="矩形" fill="#49EA4A" x="100" y="0" width="10" height="10"></rect>
                            <rect id="矩形" fill="#00FF01" x="110" y="0" width="10" height="10"></rect>
                            <rect id="矩形" fill="#B87F1D" x="130" y="0" width="10" height="10"></rect>
                            <rect id="矩形" fill="#FDFF2F" x="140" y="0" width="10" height="10"></rect>
                            <rect id="矩形" fill="#B87F1D" x="150" y="0" width="10" height="10"></rect>
                            <rect id="矩形" fill="#FDFF2F" x="160" y="0" width="10" height="10"></rect>
                            <rect id="矩形" fill="#895634" x="170" y="0" width="10" height="10"></rect>
                            <rect id="矩形" fill="#C76A2A" x="180" y="0" width="10" height="10"></rect>
                            <rect id="矩形" fill="#FFE294" x="190" y="0" width="10" height="10"></rect>
                            <rect id="矩形" fill="#895634" x="200" y="0" width="10" height="10"></rect>
                        </g>
                        <g id="19" transform="translate(50.000000, 180.000000)">
                            <rect id="矩形" fill="#FDFF2F" x="0" y="0" width="10" height="10"></rect>
                            <rect id="矩形" fill="#FEFDDF" x="10" y="0" width="10" height="10"></rect>
                            <rect id="矩形" fill="#FDFF2F" x="20" y="0" width="10" height="10"></rect>
                            <rect id="矩形" fill="#B87F1D" x="30" y="0" width="10" height="10"></rect>
                            <rect id="矩形" fill="#895634" x="40" y="0" width="10" height="10"></rect>
                            <rect id="矩形" fill="#018800" x="50" y="0" width="10" height="10"></rect>
                            <rect id="矩形" fill="#49EA4A" x="60" y="0" width="10" height="10"></rect>
                            <rect id="矩形" fill="#00FF01" x="70" y="0" width="40" height="10"></rect>
                            <rect id="矩形" fill="#00BC01" x="110" y="0" width="10" height="10"></rect>
                            <rect id="矩形" fill="#B87F1D" x="130" y="0" width="10" height="10"></rect>
                            <rect id="矩形" fill="#F1A42B" x="140" y="0" width="10" height="10"></rect>
                            <rect id="矩形" fill="#FDFF2F" x="150" y="0" width="10" height="10"></rect>
                            <rect id="矩形" fill="#FEFDDF" x="160" y="0" width="10" height="10"></rect>
                            <rect id="矩形" fill="#C76A2A" x="170" y="0" width="10" height="10"></rect>
                            <rect id="矩形" fill="#FDBF35" x="180" y="0" width="20" height="10"></rect>
                            <rect id="矩形" fill="#C76A2A" x="200" y="0" width="10" height="10"></rect>
                        </g>
                        <g id="20" transform="translate(50.000000, 190.000000)">
                            <rect id="矩形" fill="#FEFDDF" x="0" y="0" width="20" height="10"></rect>
                            <rect id="矩形" fill="#B87F1D" x="20" y="0" width="10" height="10"></rect>
                            <rect id="矩形" fill="#FDFF2F" x="30" y="0" width="10" height="10"></rect>
                            <rect id="矩形" fill="#018800" x="40" y="0" width="10" height="10"></rect>
                            <rect id="矩形" fill="#49EA4A" x="50" y="0" width="10" height="10"></rect>
                            <rect id="矩形" fill="#00FF01" x="60" y="0" width="10" height="10"></rect>
                            <rect id="矩形" fill="#49EA4A" x="70" y="0" width="10" height="10"></rect>
                            <rect id="矩形" fill="#00FF01" x="80" y="0" width="10" height="10"></rect>
                            <rect id="矩形" fill="#91FF92" x="90" y="0" width="10" height="10"></rect>
                            <rect id="矩形" fill="#00BC01" x="100" y="0" width="10" height="10"></rect>
                            <rect id="矩形" fill="#00BC01" x="110" y="0" width="10" height="10"></rect>
                            <rect id="矩形" fill="#FDFF2F" x="130" y="0" width="10" height="10"></rect>
                            <rect id="矩形" fill="#B87F1D" x="140" y="0" width="10" height="10"></rect>
                            <rect id="矩形" fill="#FEFDDF" x="150" y="0" width="20" height="10"></rect>
                            <rect id="矩形" fill="#FFE294" x="170" y="0" width="10" height="10"></rect>
                            <rect id="矩形" fill="#C76A2A" x="180" y="0" width="10" height="10"></rect>
                            <rect id="矩形" fill="#FDBF35" x="190" y="0" width="10" height="10"></rect>
                            <rect id="矩形" fill="#895634" x="200" y="0" width="10" height="10"></rect>
                        </g>
                        <g id="21" transform="translate(50.000000, 200.000000)">
                            <rect id="矩形" fill="#F1A42B" x="0" y="0" width="10" height="10"></rect>
                            <rect id="矩形" fill="#B87F1D" x="10" y="0" width="10" height="10"></rect>
                            <rect id="矩形" fill="#FDFF2F" x="20" y="0" width="10" height="10"></rect>
                            <rect id="矩形" fill="#018800" x="30" y="0" width="10" height="10"></rect>
                            <rect id="矩形" fill="#00FF01" x="40" y="0" width="20" height="10"></rect>
                            <rect id="矩形" fill="#49EA4A" x="60" y="0" width="10" height="10"></rect>
                            <rect id="矩形" fill="#00FF01" x="70" y="0" width="10" height="10"></rect>
                            <rect id="矩形" fill="#91FF92" x="80" y="0" width="10" height="10"></rect>
                            <rect id="矩形" fill="#00BC01" x="90" y="0" width="30" height="10"></rect>
                            <rect id="矩形" fill="#F1A42B" x="130" y="0" width="10" height="10"></rect>
                            <rect id="矩形" fill="#FEFDDF" x="140" y="0" width="10" height="10"></rect>
                            <rect id="矩形" fill="#B87F1D" x="150" y="0" width="10" height="10"></rect>
                            <rect id="矩形" fill="#F1A42B" x="160" y="0" width="10" height="10"></rect>
                            <rect id="矩形" fill="#895634" x="170" y="0" width="10" height="10"></rect>
                            <rect id="矩形" fill="#C76A2A" x="180" y="0" width="10" height="10"></rect>
                            <rect id="矩形" fill="#895634" x="190" y="0" width="20" height="10"></rect>
                        </g>
                        <g id="22" transform="translate(50.000000, 210.000000)">
                            <rect id="矩形" fill="#FDFF2F" x="0" y="0" width="10" height="10"></rect>
                            <rect id="矩形" fill="#F1A42B" x="10" y="0" width="10" height="10"></rect>
                            <rect id="矩形" fill="#B87F1D" x="20" y="0" width="10" height="10"></rect>
                            <rect id="矩形" fill="#018800" x="30" y="0" width="10" height="10"></rect>
                            <rect id="矩形" fill="#00FF01" x="40" y="0" width="10" height="10"></rect>
                            <rect id="矩形" fill="#91FF92" x="50" y="0" width="10" height="10"></rect>
                            <rect id="矩形" fill="#00FF01" x="60" y="0" width="20" height="10"></rect>
                            <rect id="矩形" fill="#00BC01" x="80" y="0" width="40" height="10"></rect>
                            <rect id="矩形" fill="#FDFF2F" x="120" y="0" width="10" height="10"></rect>
                            <rect id="矩形" fill="#FEFDDF" x="130" y="0" width="20" height="10"></rect>
                            <rect id="矩形" fill="#FDFF2F" x="150" y="0" width="10" height="10"></rect>
                            <rect id="矩形" fill="#B87F1D" x="160" y="0" width="10" height="10"></rect>
                            <rect id="矩形" fill="#C76A2A" x="170" y="0" width="10" height="10"></rect>
                            <rect id="矩形" fill="#895634" x="180" y="0" width="10" height="10"></rect>
                            <rect id="矩形" fill="#FFE294" x="190" y="0" width="20" height="10"></rect>
                        </g>
                        <g id="23" transform="translate(50.000000, 220.000000)">
                            <rect id="矩形" fill="#F1A42B" x="0" y="0" width="10" height="10"></rect>
                            <rect id="矩形" fill="#FDFF2F" x="10" y="0" width="10" height="10"></rect>
                            <rect id="矩形" fill="#018800" x="20" y="0" width="10" height="10"></rect>
                            <rect id="矩形" fill="#00FF01" x="30" y="0" width="10" height="10"></rect>
                            <rect id="矩形" fill="#91FF92" x="40" y="0" width="10" height="10"></rect>
                            <rect id="矩形" fill="#00FF01" x="50" y="0" width="30" height="10"></rect>
                            <rect id="矩形" fill="#00BC01" x="80" y="0" width="30" height="10"></rect>
                            <rect id="矩形" fill="#F1A42B" x="110" y="0" width="20" height="10"></rect>
                            <rect id="矩形" fill="#B87F1D" x="130" y="0" width="10" height="10"></rect>
                            <rect id="矩形" fill="#FDFF2F" x="140" y="0" width="10" height="10"></rect>
                            <rect id="矩形" fill="#B87F1D" x="150" y="0" width="10" height="10"></rect>
                            <rect id="矩形" fill="#FDFF2F" x="160" y="0" width="10" height="10"></rect>
                            <rect id="矩形" fill="#FDBF35" x="170" y="0" width="10" height="10"></rect>
                            <rect id="矩形" fill="#C76A2A" x="180" y="0" width="10" height="10"></rect>
                            <rect id="矩形" fill="#895634" x="190" y="0" width="10" height="10"></rect>
                            <rect id="矩形" fill="#FFE294" x="200" y="0" width="10" height="10"></rect>
                        </g>
                        <g id="24" transform="translate(50.000000, 230.000000)">
                            <rect id="矩形" fill="#FDFF2F" x="0" y="0" width="10" height="10"></rect>
                            <rect id="矩形" fill="#018800" x="10" y="0" width="10" height="10"></rect>
                            <rect id="矩形" fill="#91FF92" x="20" y="0" width="10" height="10"></rect>
                            <rect id="矩形" fill="#00FF01" x="30" y="0" width="20" height="10"></rect>
                            <rect id="矩形" fill="#49EA4A" x="50" y="0" width="10" height="10"></rect>
                            <rect id="矩形" fill="#00FF01" x="60" y="0" width="10" height="10"></rect>
                            <rect id="矩形" fill="#00BC01" x="70" y="0" width="50" height="10"></rect>
                            <rect id="矩形" fill="#FDFF2F" x="120" y="0" width="10" height="10"></rect>
                            <rect id="矩形" fill="#B87F1D" x="130" y="0" width="10" height="10"></rect>
                            <rect id="矩形" fill="#F1A42B" x="140" y="0" width="10" height="10"></rect>
                            <rect id="矩形" fill="#FDFF2F" x="150" y="0" width="10" height="10"></rect>
                            <rect id="矩形" fill="#FEFDDF" x="160" y="0" width="10" height="10"></rect>
                            <rect id="矩形" fill="#FDBF35" x="170" y="0" width="20" height="10"></rect>
                            <rect id="矩形" fill="#C76A2A" x="190" y="0" width="10" height="10"></rect>
                            <rect id="矩形" fill="#895634" x="200" y="0" width="10" height="10"></rect>
                        </g>
                        <g id="25" transform="translate(50.000000, 240.000000)">
                            <rect id="矩形" fill="#018800" x="0" y="0" width="10" height="10"></rect>
                            <rect id="矩形" fill="#91FF92" x="10" y="0" width="10" height="10"></rect>
                            <rect id="矩形" fill="#00FF01" x="20" y="0" width="20" height="10"></rect>
                            <rect id="矩形" fill="#49EA4A" x="40" y="0" width="10" height="10"></rect>
                            <rect id="矩形" fill="#00FF01" x="50" y="0" width="10" height="10"></rect>
                            <rect id="矩形" fill="#00BC01" x="60" y="0" width="30" height="10"></rect>
                            <rect id="矩形" fill="#91FF92" x="90" y="0" width="10" height="10"></rect>
                            <rect id="矩形" fill="#00BC01" x="100" y="0" width="30" height="10"></rect>
                            <rect id="矩形" fill="#FDFF2F" x="130" y="0" width="10" height="10"></rect>
                            <rect id="矩形" fill="#B87F1D" x="140" y="0" width="10" height="10"></rect>
                            <rect id="矩形" fill="#FEFDDF" x="150" y="0" width="20" height="10"></rect>
                            <rect id="矩形" fill="#C76A2A" x="170" y="0" width="10" height="10"></rect>
                            <rect id="矩形" fill="#895634" x="180" y="0" width="10" height="10"></rect>
                            <rect id="矩形" fill="#C76A2A" x="190" y="0" width="10" height="10"></rect>
                            <rect id="矩形" fill="#895634" x="200" y="0" width="10" height="10"></rect>
                        </g>
                        <g id="26" transform="translate(50.000000, 250.000000)">
                            <rect id="矩形" fill="#00FF01" x="0" y="0" width="50" height="10"></rect>
                            <rect id="矩形" fill="#00BC01" x="50" y="0" width="40" height="10"></rect>
                            <rect id="矩形" fill="#91FF92" x="90" y="0" width="20" height="10"></rect>
                            <rect id="矩形" fill="#00BC01" x="110" y="0" width="40" height="10"></rect>
                            <rect id="矩形" fill="#B87F1D" x="150" y="0" width="10" height="10"></rect>
                            <rect id="矩形" fill="#F1A42B" x="160" y="0" width="10" height="10"></rect>
                            <rect id="矩形" fill="#895634" x="170" y="0" width="20" height="10"></rect>
                            <rect id="矩形" fill="#FDBF35" x="190" y="0" width="10" height="10"></rect>
                            <rect id="矩形" fill="#C76A2A" x="200" y="0" width="10" height="10"></rect>
                        </g>
                        <g id="27" transform="translate(0.000000, 260.000000)">
                            <rect id="矩形" fill="#00FF01" x="0" y="0" width="10" height="10"></rect>
                            <rect id="矩形" fill="#91FF92" x="10" y="0" width="20" height="10"></rect>
                            <rect id="矩形" fill="#00FF01" x="30" y="0" width="30" height="10"></rect>
                            <rect id="矩形" fill="#00BC01" x="60" y="0" width="230" height="10"></rect>
                        </g>
                    </g>
                    <g id="line" fill="#FFFFFF">
                        <rect id="矩形" x="60" y="0" width="210" height="10"></rect>
                        <rect id="矩形" x="50" y="10" width="10" height="260"></rect>
                        <rect id="矩形" x="270" y="10" width="10" height="260"></rect>
                        <rect id="矩形" x="10" y="260" width="45" height="10"></rect>
                        <rect id="矩形" x="0" y="270" width="10" height="10"></rect>
                        <rect id="矩形" x="10" y="280" width="290" height="10"></rect>
                        <rect id="矩形" x="300" y="270" width="10" height="10"></rect>
                        <rect id="矩形" x="275" y="260" width="35" height="10"></rect>
                        <rect id="矩形" x="140" y="60" width="50" height="10"></rect>
                        <rect id="矩形" x="140" y="70" width="10" height="100"></rect>
                        <rect id="矩形" x="150" y="170" width="40" height="10"></rect>
                        <rect id="矩形" x="180" y="65" width="10" height="155"></rect>
                    </g>
                </g>
                <g id="Logo-Vertical" transform="translate(358.000000, 85.000000)">
                    <path d="M80,0 L80,10 L90,10 L90,20 L100,20 L100,120 L90,120 L90,130 L80,130 L80,140 L0,140 L0,0 L80,0 Z M70,20 L20,20 L20,120 L70,120 L70,110 L80,110 L80,30 L70,30 L70,20 Z" id="形状" fill="#FFFFFF"></path>
                    <path d="M152,90 L152,120 L212,120 L212,108 L232,108 L232,126 L212,126 L212,140 L152,140 L152,126 L132,126 L132,44 L152,44 L152,30 L212,30 L212,44 L232,44 L232,76 L212,76 L212,90 L152,90 Z M152,70 L212,70 L212,50 L152,50 L152,70 Z" id="形状" fill="#FFFFFF"></path>
                    <polygon id="路径" fill="#FFFFFF" points="344 0 344 20 314 20 314 30 344 30 344 50 314 50 314 140 294 140 294 50 264 50 264 30 294 30 294 10 304 10 304 0"></polygon>
                    <path d="M476,30 L476,140 L456,140 L456,120 L436,120 L436,100 L456,100 L456,30 L476,30 Z M396,30 L396,120 L436,120 L436,140 L396,140 L396,128 L376,128 L376,30 L396,30 Z" id="形状" fill="#FFFFFF"></path>
                    <polygon id="路径" fill="#FFFFFF" points="528 75 588 75 588 87 608 87 608 128 588 128 588 140 518 140 518 120 588 120 588 95 528 95 528 83 508 83 508 42 528 42 528 30 598 30 598 50 528 50"></polygon>
                    <g id="I" transform="translate(640.000000, 10.000000)">
                        <path d="M40,120 L30,120 L30,130 L20,130 L20,60 L40,60 L40,120 Z M20,40 L20,60 L0,60 L0,40 L20,40 Z M40,0 L40,20 L20,20 L20,0 L40,0 Z" id="形状" fill="#FFFFFF"></path>
                        <rect id="矩形" fill="#00FF01" x="20" y="40" width="20" height="20"></rect>
                    </g>
                    <path d="M782,126 L782,140 L732,140 L732,126 L712,126 L712,44 L732,44 L732,30 L782,30 L782,44 L802,44 L802,126 L782,126 Z M782,50 L732,50 L732,120 L782,120 L782,50 Z" id="形状" fill="#FFFFFF"></path>
                    <polygon id="路径" fill="#FFFFFF" points="874 70 854 70 854 140 834 140 834 30 854 30 854 44 874 44 874 30 914 30 914 44 934 44 934 140 914 140 914 50 874 50"></polygon>
                </g>
            </g>
        </g>
    </g>
</svg>